<svg xmlns="http://www.w3.org/2000/svg" xmlns:xlink="http://www.w3.org/1999/xlink" viewBox="0 0 1254.65 738.99"><defs><style>.a,.z{fill:none;}.b{fill:#f60;}.c{fill:#717171;}.d{fill:#dad4d2;}.e{fill:#0a0d12;}.f{fill:#2c343d;}.g{fill:#0d5;}.h{fill:#ff3647;}.i{fill:#fff;}.j{fill:#141921;}.k{fill:#757a80;}.l{fill:#575c63;}.m{fill:#cbcfd6;}.n{fill:#c1c6cc;}.o{fill:#3d4046;}.p{opacity:0.5;}.q{fill:#fda271;}.r{fill:#de7f50;}.s{fill:#dae4f2;}.t{fill:#ffb576;}.u{fill:#0a0604;}.v{fill:#0059a6;}.w{fill:#003868;}.x{fill:#d0daea;}.y{clip-path:url(#a);}.z{stroke:#355586;stroke-miterlimit:10;stroke-width:0.5px;}.aa{fill:#355586;}.ab{fill:#492423;}.ac{fill:#f9ba85;}.ad{fill:#572e2b;}.ae{fill:#e0a273;}.af{fill:#d1766d;}.ag{fill:#1b0e09;}.ah{fill:#291912;}</style><clipPath id="a"><path class="a" d="M456.31,354.58H820.63V430.7H456.68C457.91,418.29,461,386,456.31,354.58Z"></path></clipPath></defs><path class="b" d="M15,479.5c16.89-46.11,47.69-60.45,87.82-69.12,39.41-8.51,86.78-1,123-23.31,33.91-20.92,62-60.7,82.17-97,20.28-36.51,60.39-80.41,97.4-92.9,43-14.43,86.91-5.73,130,2,42,7.5,75.51,10.56,116.53-4.49,79.27-29,35.47-24.87,104.73-60.09,65.49-33.3,154.3-37.73,214-15.81,23.68,8.71,61,58.95,86.85,91.57,31.8,40.15,34.84,115.28,74.9,141.83,54.64,36.23,129,74,121.74,158.08-1.43,16.56-4.07,33.28-10.39,48.49s-17.64,25.45-24.84,39.9c-12.58,25.27-34.59,95.36-17.35,117.17H41.55C31,675.25,27.48,631.07,20.3,588.5,14,551.3,1.3,517,15,479.5Z"></path><path class="c" d="M0,719.09c0,11,277.54,19.9,619.9,19.9s619.9-8.91,619.9-19.9-277.54-19.9-619.9-19.9S0,708.1,0,719.09Z"></path><path class="d" d="M355,592.71H718.31c-5.08-72.05-2.85-263.77,17-300.73l-223.42-2.93-114.17-1.5C341,263.21,349.17,524.36,355,592.71Z"></path><path class="d" d="M355,592.71h96c-9-23.71-18.2-47.6-23.38-72.56-9-43.32-15.11-86.44-15.11-130.54,0-20.42-2.71-49.27,17.36-61.18,15-8.91,39,2.47,49,16.62l33.09-56-114.17-1.5C341,263.21,349.17,524.36,355,592.71Z"></path><rect class="e" x="634.76" y="166.41" width="11.63" height="61.32"></rect><rect class="e" x="597.76" y="158.72" width="85.63" height="51.54"></rect><rect class="f" x="602.51" y="164.29" width="64.22" height="40.4" rx="4.14"></rect><path class="g" d="M678.77,170.11a4,4,0,1,1-4-4A4,4,0,0,1,678.77,170.11Z"></path><path class="h" d="M678.77,183.85a4,4,0,1,1-4-4A4,4,0,0,1,678.77,183.85Z"></path><rect class="i" x="609.12" y="174.8" width="28.54" height="2.24"></rect><rect class="i" x="609.12" y="179.8" width="28.54" height="2.24"></rect><rect class="i" x="609.12" y="184.8" width="28.54" height="2.24"></rect><rect class="i" x="609.12" y="189.8" width="28.54" height="2.24"></rect><rect class="i" x="642.42" y="184.74" width="15.86" height="2.19"></rect><rect class="j" x="943.51" y="698.92" width="17.67" height="25.52"></rect><rect class="j" x="783.54" y="698.92" width="20.61" height="25.52"></rect><rect class="k" x="833.82" y="260.25" width="51.53" height="435.77"></rect><rect class="l" x="833.82" y="260.25" width="17.66" height="435.77"></rect><rect class="m" x="867.94" y="259.28" width="8.83" height="434.74"></rect><rect class="j" x="768.06" y="693.08" width="202.68" height="16.19"></rect><rect class="n" x="908.18" y="693.08" width="62.56" height="15.66"></rect><rect class="m" x="331.14" y="547.3" width="512.27" height="54.96"></rect><rect class="k" x="331.14" y="557.61" width="512.27" height="54.96"></rect><rect class="i" x="332.61" y="422.17" width="512.26" height="23.52"></rect><rect class="k" x="332.61" y="426.58" width="512.26" height="23.53"></rect><polygon class="o" points="289.17 418.23 321.55 404.53 321.55 460.47 289.17 460.47 289.17 418.23"></polygon><polygon class="o" points="284.75 565.45 317.14 551.75 317.14 607.69 284.75 607.69 284.75 565.45"></polygon><g class="p"><rect class="k" x="332.61" y="422.17" width="76.39" height="27.94"></rect></g><g class="p"><rect class="k" x="331.14" y="547.3" width="77.86" height="65.26"></rect></g><rect class="j" x="413.57" y="698.92" width="17.66" height="25.52"></rect><rect class="j" x="253.61" y="698.92" width="20.61" height="25.52"></rect><rect class="k" x="303.89" y="260.25" width="51.53" height="435.77"></rect><rect class="l" x="303.89" y="260.25" width="17.67" height="435.77"></rect><rect class="m" x="338.01" y="259.28" width="8.83" height="434.74"></rect><rect class="j" x="238.12" y="693.08" width="202.68" height="16.19"></rect><rect class="n" x="378.24" y="693.08" width="62.55" height="15.66"></rect><path class="i" d="M823.08,324.66c12.12.83,25.22,1.54,38.47,2h1.09c10.91.37,21.9.54,32.53.44,7.84-.07,15.47-.29,22.72-.7,1.92-24.94,1.39-50.92-6.6-73.2-3.77-10.52-9.51-30-22.56-33.92-16.37-4.92-28.81-5.46-38.09-4-17.51,2.66-23.74,12.22-23.74,12.22C819.17,259.74,819.46,292.79,823.08,324.66Z"></path><path class="n" d="M823.08,324.66c12.12.83,25.22,1.54,38.47,2h1.09c10.91.37,21.9.54,32.53.44,1.32-24,.47-54.19-6.77-74.38-3.76-10.52-9.51-30-22.56-33.92a119.79,119.79,0,0,0-15.2-3.57c-17.51,2.66-23.74,12.22-23.74,12.22C819.17,259.74,819.46,292.79,823.08,324.66Z"></path><rect class="n" x="329.65" y="288.23" width="547.65" height="27.97"></rect><rect class="j" x="329.65" y="297.06" width="547.65" height="19.14"></rect><rect class="e" x="337.75" y="215.11" width="534.4" height="22.08" rx="9.81"></rect><rect class="e" x="309.78" y="249.95" width="540.29" height="22.08"></rect><rect class="j" x="324.5" y="227.86" width="540.29" height="33.86"></rect><rect class="i" x="348.8" y="227.86" width="522.86" height="10.8"></rect><rect class="e" x="749.2" y="271.05" width="47.1" height="16.66"></rect><rect class="e" x="581.38" y="271.05" width="47.1" height="16.66"></rect><rect class="e" x="413.57" y="271.05" width="47.11" height="16.66"></rect><path class="i" d="M278.37,324.56c12.12.87,25.22,1.62,38.46,2.09h.89c11,.38,22.16.55,32.9.42,7.78-.09,15.37-.34,22.57-.79,1.95-26.92,1.47-55-6.48-79-3.75-11.35-9.46-32.37-22.5-36.58-16.37-5.28-28.81-5.85-38.08-4.32-17.53,2.9-23.77,13.24-23.77,13.24C274.57,254.48,274.8,290.15,278.37,324.56Z"></path><path class="n" d="M278.37,324.56c12.12.87,25.22,1.62,38.46,2.09h.89c11,.38,22.16.55,32.9.42,1.15-26,.15-59.28-6.8-80.29-3.75-11.35-9.46-32.36-22.5-36.57a113.38,113.38,0,0,0-15.19-3.85c-17.53,2.9-23.77,13.24-23.77,13.24C274.57,254.48,274.8,290.15,278.37,324.56Z"></path><rect class="o" x="285.74" y="297.56" width="52.27" height="14.73"></rect><rect class="e" x="305.15" y="299.45" width="32.86" height="12.41"></rect><path class="q" d="M719.07,196.23c.4.18.8.37,1.22.54,17.29,7.67,43.9,12.21,63.09,12.75,13.32.38,23.66-3.64,34-8.16q-1.41-2.87-2.89-5.7c-1.82-3.52-3.72-7-5.74-10.45-1.91-3.29-3.87-6.59-5.79-9.91-25.41-1.23-56,10.82-80.65,9.63v.14c-1.5,4-1.31,6.15-2.73,10A12,12,0,0,0,719.07,196.23Z"></path><path class="q" d="M675,174.75c4.19,8,18.27,11.65,21.82,20.15a42.78,42.78,0,0,0-7.14.81c-2.47.54-4.7,1.44-5.2,2.89-1.8,5.12,8,1.64,10.8,1.79,4.58.25,7.47,2.06,12.41.47,4.29-1.37,7.5-4.5,12.51-3.9l.1-.19.87-1.69,4.17-8.15c-.89-.59-2-1.22-3.1-1.86a140.12,140.12,0,0,0-17.16-7.79c-3-1-13.69,1.23-11.13,3.84C690.72,179.27,669.49,164.24,675,174.75Z"></path><path class="r" d="M695,200.36c4.71.25,7.68,2.06,12.75.47,4.4-1.37,7.69-4.5,12.83-3.9l.11-.19c17.75,7.67,45.07,12.21,64.77,12.75,13.67.38,24.29-3.64,34.88-8.16q-1.46-2.87-3-5.7l-1.9-2.93c-8.11,2.49-18.07,7.6-28.26,9a138.41,138.41,0,0,1-31.71.48c-8.88-.79-16.82-3.74-25.25-5.92a36.28,36.28,0,0,0-8.67-1.23h-1.7c-4.81.15-9.31,1.27-15.15,2.41-6.44,1.25-9.82-.14-15.48-1.78-2.53.54-4.82,1.44-5.34,2.89C682,203.72,692.13,200.24,695,200.36Z"></path><path class="i" d="M798.62,175.36q1.1,3.19,2.13,6.42c2.27,7.1,4.16,14.37,5.8,21.69.35,1.56.68,3.13,1,4.7,3.12-.44,6.67-1.24,10.4-1.66,17.8-2,37.67-7.1,51.91-19.29l1.49-1.32v-1.69l.19-17.83L871.8,142c-6.51-.26-13.17,4.93-18.38,8.85a112.85,112.85,0,0,1-18.61,11.24c-9.25,4.57-19.77,9.47-30.25,12C802.59,174.61,800.61,175,798.62,175.36Z"></path><path class="s" d="M798.62,175.36q1.1,3.19,2.13,6.42c2.27,7.1,4.16,14.37,5.8,21.69.35,1.56.68,3.13,1,4.7,3.12-.44,6.67-1.24,10.4-1.66,17.8-2,37.67-7.1,51.91-19.29.53-1,1-2,1.51-3,1.57-3.44,2.64-7,2.32-9.42l-2.13-8.44-.68-2.69c-12.5,21-36.88,30.83-59.42,29.53-.83-6.62-4.17-12.84-6.88-19.06C802.59,174.61,800.61,175,798.62,175.36Z"></path><path class="q" d="M798.67,722.36a5.26,5.26,0,0,0,1.05,1.3c5.83,5.35,25.18,1.9,35.27,1.86h.29c2.11,0,4.56.12,6.9,0,4.64-.23,8.88-1.33,9.22-5.84a10.56,10.56,0,0,0-.27-3.07c-.74-3.38-2.54-7.5-3.53-11.54-.79-3.22,1-21.92,2.17-24.62H835c0,.15-2.1,15.09-2.13,15.25-.51,3.09-4.94,8.06-9,11.57a30.78,30.78,0,0,1-4.54,3.33,37.37,37.37,0,0,1-5.45,2.33C807,715.36,798.38,717.82,798.67,722.36Z"></path><path class="i" d="M798.67,722.36a5.26,5.26,0,0,0,1.05,1.3c5.83,5.35,25.18,1.9,35.27,1.86,1.39-.11,2.8-.18,4.22-.18.81,0,1.84.09,3,.18,4.64-.23,8.88-1.33,9.22-5.84a10.56,10.56,0,0,0-.27-3.07c-.74-3.38-2.54-7.5-3.53-11.54-2.77,2.65-6.87,5.87-9.88,1.48v-1.3c0-2.31-.12-7.18-2.75-8.91a3.31,3.31,0,0,0-2.1-.64c-.51,3.09-4.94,8.06-9,11.57a30.78,30.78,0,0,1-4.54,3.33,37.37,37.37,0,0,1-5.45,2.33C807,715.36,798.38,717.82,798.67,722.36Z"></path><path class="q" d="M960.26,721.36c2.59,2.47,11.51,2.56,14.44,2.56,6.44,0,14.21-.13,18.67-2.07.07-1.67-1.11-3.5-2.72-5.33-6.08-.16-13.4-.06-15.95.17-5.05.45-9.55,2.94-14.19,4.63,1.16-4.49,2.81-10.29,3.76-15.73,2.52-.77,7.68-1.22,12.82-1.4h.09c1.21,0,2.41-.07,3.58-.08h.69a42.1,42.1,0,0,1-1-5c-.59-3.73-1.27-16.63-.73-18.28l-13.17-.4c.51,2.91-.65,16.24-1.34,20.19-.24,1.35-.51,2.73-.82,4.1-.92,4.14-2.06,8.25-2.94,11.62C960.9,718.36,960.48,720,960.26,721.36Z"></path><path class="t" d="M960.51,721.36c4.64-1.69,9.14-4.18,14.19-4.63,2.55-.23,9.87-.33,15.95-.17-1.11-1.27-2.44-2.54-3.7-3.77h0a23.09,23.09,0,0,1-4.08-4.63,20.16,20.16,0,0,1-1.39-4h-4.36c-5.14.18-10.3.63-12.82,1.4C963.32,711,961.67,716.82,960.51,721.36Z"></path><path class="t" d="M960.09,723.27v.26h0a.61.61,0,0,0,0,.19l.06.16c1.69,3.07,11.77,3.16,14.92,3.16,9,0,16.64.66,18.1-4.5v-.73c-4.46,1.94-12.23,2.07-18.67,2.07-2.93,0-11.85-.09-14.44-2.56a4.88,4.88,0,0,1-.11.7h0v.61A4.56,4.56,0,0,0,960.09,723.27Z"></path><path class="u" d="M960.09,723.27v.26h0a.61.61,0,0,0,0,.19l.06.16c1.69,3.07,11.77,3.16,14.92,3.16,9,0,16.64.66,18.1-4.5v-.73c-4.46,1.94-12.23,2.07-18.67,2.07-2.93,0-11.85-.09-14.44-2.56h0a5.13,5.13,0,0,1-.1.7h0v.61A4.53,4.53,0,0,0,960.09,723.27Z"></path><path class="i" d="M960.09,723.27v.26h0a.61.61,0,0,0,0,.19l.06.16c1.69,3.07,13.14,4.31,16.3,4.31,9,0,15.26-.49,16.72-5.65v-.73c.07-1.67-1.11-3.5-2.72-5.33-1.11-1.27-2.44-2.54-3.7-3.77h0c-10.39-11.3-4.55-17.35-11.47-17.35-6.49,0-6.68,9.1-11.1,9.34-.92,4.14-2.06,8.25-2.94,11.62-.51,2-.93,3.7-1.15,5h0a5.13,5.13,0,0,1-.1.7h0v.61A4.49,4.49,0,0,0,960.09,723.27Z"></path><path class="v" d="M946.15,348.14c-7,30-19.24,32.69-29.38,59.21-4.74,12.41-8.75,47.11-12,61.14-10.7,45.87-9.36,77.56-15.47,124.64-1.76,13.59-25.7,71.17-37.11,95.78H828.11c2.27-23.2,3.83-43.22,6.29-63.51a545.09,545.09,0,0,1,12.12-66.84C860.17,503,858.35,413.9,869.26,351.12Z"></path><path class="v" d="M902,368.42q3,8.11,5.59,16.56C923.18,434.73,931.1,492,942,542.19c4.43,20.35,7.74,40.52,10.33,60.68q1.41,10.83,2.53,21.68c2.24,21.3,3.83,42.68,5.21,64.36h23.77c4.82-23.69,12.07-73.3,10.71-86.94-4.72-47.25-12.51-48.75-12.46-95.84,0-30.09-2.11-74.55-3.54-114.26-.5-13.75-.91-26.92-1.12-38.74-.09-5.34-.14-10.4-.14-15.12l-11.53,4.66-4,1.62-4.23,1.7Z"></path><path class="w" d="M916.77,415.1c-4.74,12.4-8.75,39.36-12,53.39-10.7,45.87-9.36,77.56-15.47,124.64-1.76,13.59-25.7,71.17-37.11,95.78H828.11c2.27-23.2,3.83-43.22,6.29-63.51a26.24,26.24,0,0,0,28.72-9.34c9-12.39,16.25-27,17-42,4.79-91.81,31-196.06,29.74-197.64C909.89,376.36,916.24,404.29,916.77,415.1Z"></path><path class="i" d="M864.14,234.87c.23,4,.44,8.06.63,12.15C867,296.75,865.9,370.19,866,370.36c3.77,5.73,79.77,8.23,111.86,0A289.8,289.8,0,0,1,976.62,336c.62-42.79,7.51-94.22,12-123.79,1.46-9.55,2.67-16.81,3.34-20.79.12-.66.23-1.32.34-2s.19-1.11.28-1.66c1.54-9.61,7.67-29.61,4.12-41.25a14.12,14.12,0,0,0-2.46-4.8c-3.45-4.24-21.39-11.26-32.41-13.79l-10.11-.76-52.12-.32a76.7,76.7,0,0,0-9.41,4.06c-2.63,1.35-5.2,2.83-7.75,4.42-1.43.89-2.85,1.83-4.26,2.78a26.62,26.62,0,0,1-6.66,3c-4.91,1.62-9.77,3-12,8.91C856.84,157,861.58,191.91,864.14,234.87Z"></path><path class="x" d="M939.77,122.27A78.36,78.36,0,0,1,897,153.05c8.53,2.44,23.77,11.28,28,18.87a193.84,193.84,0,0,0,17-20.77c7.39-10.5,11.31-16.28,13.9-23.52Z"></path><path class="x" d="M879.08,165.12c2.89-8-2.27-19.22-.88-27a116.42,116.42,0,0,1,12-7.19c-.19,4.52,0,10.16.63,12.52,1.66,6.58,5.07,8.29,10.18,10.43C892.45,154.19,885.35,159.61,879.08,165.12Z"></path><path class="x" d="M899.27,251.69c-5.09-22.84-4.7-88.45-2.23-98.52l2.56.57c-2.44,9.94-2.8,74.8,2.24,97.43Z"></path><path class="x" d="M907.78,170.47a2.31,2.31,0,1,1-2.27-2.79A2.58,2.58,0,0,1,907.78,170.47Z"></path><path class="x" d="M909,213.49a2.31,2.31,0,1,1-2.28-2.79A2.59,2.59,0,0,1,909,213.49Z"></path><path class="x" d="M904.7,228.69c3.31,26.87,3.85,53.87,19.86,77.42,9.26,13.62,24.8,26.1,41.41,29.57a29.34,29.34,0,0,0,10.65.31c.62-42.79,7.51-94.22,12-123.79-1.45,6.56-4,4.32-6.19,10.66-11,31.33-48.76,35.86-69.61,15.86A52.55,52.55,0,0,1,904.7,228.69Z"></path><path class="v" d="M866.86,193.1c25-9.25,55.93-8.36,74.88.07a218.89,218.89,0,0,0-5.14,32.28c-1.27,15.81-.1,32.2,6.81,46.7,5.46,11.47,16,20.78,27.36,26.32a62.22,62.22,0,0,0,9.47,3.76c-.72,23.9-.89,53.77-1.52,89.64h-.12c-2.89.05-7.22-.19-12.53-.62-15-1.21-35.45-10.69-56-13-18.28-2-37.18,3-44.75,3.14C863.58,362.16,861.21,216.51,866.86,193.1Z"></path><path class="v" d="M928.54,228.6l9.17-.45c-2.2-45.34,14.66-84.1,24.14-100.22l-10.11-.76A193.6,193.6,0,0,0,939,156.91,197.31,197.31,0,0,0,928.54,228.6Z"></path><path class="v" d="M870,224.8l9-1.85c-7.09-34.43-2.29-66.72,3.43-87.62q-2.14,1.33-4.26,2.78a26.27,26.27,0,0,1-6.66,3c-.82,3.57-1.58,7.34-2.25,11.28A198.52,198.52,0,0,0,870,224.8Z"></path><path class="w" d="M976.38,596.84c13.45-20.81-2.66-57.76-3.73-80.21-1.33-28.23-1.4-56.94-4.25-85.19-1.34-13.21-2-26.65-2.33-40.19-.39-16.13-.29-32.4-.26-48.58v-6.73c0-13.38.61-26.5.8-39.7,1.37.8,2.75,1.54,4.16,2.23a62.22,62.22,0,0,0,9.47,3.76c-.72,23.9-.89,53.77-1.52,89.64h-.12c1.43,39.71,3.57,84.17,3.54,114.26,0,47.09,7.74,48.59,12.46,95.84,1.36,13.64-5.89,63.25-10.71,86.94H960.12c-1.38-21.68-3-43.06-5.21-64.36q-1.14-10.86-2.53-21.68C961.62,605.68,971,605.15,976.38,596.84Z"></path><path class="w" d="M878.91,202.56l46.47.86c-3.6,17.2,0,33-1.72,44.75-12.93-.15-32.36,1.6-44.75-1.72C877.19,231,875.48,213.36,878.91,202.56Z"></path><path class="v" d="M875.5,205.15l47.29.37c-5.2,7.49-2.82,13.92-1.75,19.6-13.15-.07-32.93.7-45.54-.75C873.75,217.58,872,209.89,875.5,205.15Z"></path><path class="q" d="M845,308.47c1.23,5.15,2.87,10.37,4.15,15.76.22.93.44,1.87.63,2.82,23.45-2.84,55.06-16.07,75.68-28.66C942.2,288.17,950,273.89,959,259.53A160.79,160.79,0,0,1,969.73,244l-32.12-3.56C903,251.36,876.34,290.21,845,308.47Z"></path><path class="r" d="M849.74,327.05c.23.92-.19-.95,0,0,23.45-2.84,55.06-16.07,75.68-28.66,16.74-10.22,24.58-24.5,33.54-38.86L942.4,241.89c-6.14,8.46-9.36,24.86-15.06,35.68-6.61,12.54-14.35,20.3-26.13,28C885.49,315.73,868.17,324.84,849.74,327.05Z"></path><path class="i" d="M910.11,253.75c13,9.74,18.44,18.9,35.17,26.77a66.26,66.26,0,0,0,14-13.32c13.24-16.36,23.06-39.54,30.5-56.31,5.66-12.75,10.92-28.06,11.36-42.69.26-8.6,4.88-28.12-17.38-32l-25,18.58c-.91,13.45-5.9,28.24-12.82,42.7C935.8,218.71,921.56,239.22,910.11,253.75Z"></path><path class="s" d="M910.11,253.75c11.34,11.52,24.18,23.3,40.92,31.17,5-3.43,6.29-13.78,10.57-19.09-7.7-5.7-21-10.93-26.92-16.16-5-4.42-5.62-4.36-4.73-10.28.7-4.71,4.56-10.62,6.67-14.94,9.76-19.94,20.49-40.89,29.76-60.7-6,5.64-9.35,15.72-13.72,23.08-2.12,3.57-4.39,7.12-6.73,10.65C935.8,218.71,921.56,239.22,910.11,253.75Z"></path><path class="q" d="M809.63,307.42c4.45-1.46,8.08-3.68,12.73-3.17,3.55.39,8.32,1.83,13.2,3.09l-7.25,11.17a38.32,38.32,0,0,0-10.19-5.73c-2.71-.85-4-.17-6.83-.23C804.54,312.42,803.9,309.3,809.63,307.42Z"></path><path class="i" d="M442.44,440.21c2.38-22.59,11.36-111.22-35.21-140.07-6.71-4.16-14.54-10.76-15.93-13.35L780.24,288c22.55,13.09,35.08,18,45.61,45.09,8.82,22.73,4,48.83,8,107.14Z"></path><g class="y"><path class="z" d="M631.81,402.17l1.91.52m1.83.5,6.7,1.81m15,25.77-27.58,53m27.58-58.25-27.58,47.71m27.58-42.41v-5.3m1.85-12.36-2.54,3.51m2.54-3.51v-3.55"></path><line class="z" x1="629.67" y1="483.72" x2="629.67" y2="473.18"></line><path class="z" d="M629.67,483.72,619.41,471.6m10.26,1.58-10.26-10.92"></path><line class="z" x1="619.41" y1="462.26" x2="617.82" y2="464.32"></line><line class="z" x1="619.41" y1="471.6" x2="617.82" y2="473.89"></line><line class="z" x1="619.41" y1="471.6" x2="619.41" y2="462.26"></line><path class="z" d="M617.82,464.36v9.57m-34-70.17.8-.21m4.57-1.2.93-.24m17.46,14.45-.59.3"></path><line class="z" x1="590.08" y1="402.28" x2="589.15" y2="402.52"></line><path class="z" d="M589.15,404.3l.93.51m-5,23.08v1.4m-1.31-25.57v2.91"></path><line class="z" x1="584.58" y1="404.2" x2="583.78" y2="403.72"></line><line class="z" x1="584.07" y1="406.82" x2="583.78" y2="406.63"></line><path class="z" d="M590.08,406.09l-.93-.53m40.52-8.85V383.53m-56.79,3.24-17.47-5"></path><line class="z" x1="540.05" y1="392.92" x2="540.03" y2="392.15"></line><line class="z" x1="540.05" y1="382.3" x2="539.8" y2="379.8"></line><line class="z" x1="555.41" y1="391.26" x2="540.05" y2="392.92"></line><line class="z" x1="555.41" y1="381.76" x2="540.05" y2="382.3"></line><path class="z" d="M539.8,379.8l6.21-.11m-6.21,5.52V379.8m109.65-.63,2.84.05m-13.56,1.64,8.72-.68M613,382.59l-14.25-1m-1.68-.13-10.88-.79"></path><line class="z" x1="573.91" y1="381.05" x2="570.62" y2="381.16"></line><line class="z" x1="563.78" y1="381.4" x2="563.26" y2="381.42"></line><path class="z" d="M563.26,381.42h-.53m-2.06.06h-.55m40.75,2-2.17-.17m-1.68-.18-10.88-1.13m0,0-9.15.45m-3.08.15-3.29.16m-2.65.13-1.06.05m19.23-2.36v1.42m-22.88-.63v.8"></path><path class="z" d="M558.27,380.65l-9.27.25m0,0-3-1.16"></path><line class="z" x1="555.41" y1="381.76" x2="558.27" y2="381.66"></line><path class="z" d="M560.67,381l-.55-.1m-1.85.59-3.56.11"></path><path class="z" d="M554.71,381.56l.46.14m-13.78-1.9,4.62-.08m-4.24.61,4.24-.09m12.26,1.12-9.27.3m0,0-3-1.4m3,.63v.77m80.67,1.86-10.26-.72m6.8.23L649,380.79m-29.59,6.7v-4.68m-46.53,11.94v-8m-17.47-1.21v-3.8m62.52,12.41V387.7m-41.82,17V394.25m-36.31-9h.25"></path><line class="z" x1="540.03" y1="392.15" x2="539.8" y2="385.21"></line><line class="z" x1="657.25" y1="380.39" x2="629.67" y2="383.53"></line><path class="z" d="M657.25,380.36H656m3.1,3.43v-4.43m-7.77,1.51L649,380.8m-76.23,81.48-6.25-16m-2.81,27.77v2.45"></path><line class="z" x1="555.64" y1="480.48" x2="555.64" y2="483.1"></line><path class="z" d="M555.64,483.1l8.07-6.6m-12.16-20.29,4.09,26.89"></path><path class="z" d="M555.64,480.48l8.07-6.43m-12.16-19.8,4.09,26.23"></path><line class="z" x1="559.65" y1="452.17" x2="555.92" y2="454.41"></line><line class="z" x1="559.65" y1="452.17" x2="564.12" y2="468.82"></line><line class="z" x1="559.65" y1="450.27" x2="559.65" y2="452.17"></line><line class="z" x1="559.65" y1="450.27" x2="564.65" y2="468.42"></line><path class="z" d="M555.41,452l-3.86,2.22m0,0v2m4.37-1.8-.51-2.38m11.11-7.55-2.2,1.25"></path><path class="z" d="M573.45,461.76l-6.93-17.28M615.39,468l-19.08,24.83"></path><line class="z" x1="585.09" y1="429.29" x2="609.9" y2="457.66"></line><line class="z" x1="569.95" y1="492.86" x2="563.71" y2="469.13"></line><path class="z" d="M617.82,473.89l-1.68,2.41m-48.45,16.56-4-16.36m51.7-1.14-12.48,17.5m12.48-17.5.75,1"></path><line class="z" x1="616.14" y1="466.48" x2="616.14" y2="476.3"></line><line class="z" x1="564.32" y1="445.73" x2="564.32" y2="447.56"></line><path class="z" d="M566.52,444.48v1.8M615.39,468v7.33m0-7.29-6.18-7.4m6.93,5.85-6.93-8.16m8.61,5.92-1.68,2.16"></path><path class="z" d="M609.21,460.63v-2.27m-42.69-13.92,8.06-4.57"></path><path class="z" d="M576.62,461.36l-9.42,7.31m0,0,7.31,24.18m18.15,0,19.5-24.38m0,0L606.22,461m0,0,1.75-1.86m0,0-23.81-28.51m0,0-9.58,5.07m0,.06,2.35,3.93m0,0-7.86,4.53m0,0,7.55,17.14"></path><path class="z" d="M590.08,408.47l-.93-.58m-61.88,17.25-11.51,44.94m68.82-62.33-10,3m-58.82,59.3v2.35m22.91-120.81-.36-.07"></path><line class="z" x1="614.94" y1="277.86" x2="669.53" y2="355.12"></line><path class="z" d="M669.53,355.12h-.26m.26-1.26v1.22"></path><path class="z" d="M669.27,355.11l-55.5-77.25m-35.2,0-17,43.17m-.6-.58,16.11-42.59M561,317.36v3.12"></path><path class="z" d="M538.31,351.55l-2-42.42m0-3.75v3.75"></path><path class="z" d="M561,320.45l-24.76-11.32m25.36,12.45-24.34-11"></path><path class="z" d="M538.68,351.82l7.33,1.27m113.09,4,10.17-1.68"></path><path class="z" d="M669.27,355.36l-56.21-77.5m-34.09,0-17.35,43.72M537.28,310,561.62,321"></path><line class="z" x1="537.28" y1="310.62" x2="537.28" y2="309.95"></line><path class="z" d="M561.62,321.58V321m35.67,81.2,1,.45m-1-2.08v1.63m1,.45,1.85-.54m-2.88.09,2.88-.82m-2.88-.81,2.88-.76m-3.88.36,1,.4m-1-.4,3.88-1m-3.88.43v.57"></path><path class="z" d="M595.58,399.81l1.13,2.32m38.84,1.06-.73.38m0,0-1.1-.31"></path><line class="z" x1="634.82" y1="403.57" x2="634.82" y2="394.9"></line><path class="z" d="M635.55,403.19v-8.54m23.55,14.91-.48.59m.48-26.36-.48.12m0,26.24V383.91m.48,25.65V383.79m-12.72,18.57V390.84m-30,71.82-2.82-3.14m5.9-.69-3.08,3.83m1.6-68.49-1.6.41"></path><line class="z" x1="616.33" y1="462.66" x2="616.33" y2="394.58"></line><path class="z" d="M619.45,448.19V414m-10.27,3-1.18-.64m2.86-.17-1.64.86"></path><line class="z" x1="609.18" y1="417" x2="609.18" y2="396.38"></line><path class="z" d="M610.82,416.14V396m-71,20.57.23-.06"></path><path class="z" d="M539.81,417.61l.22-.06m-.22.06v-1.07"></path><path class="z" d="M539.81,420.94l.22-.07m-.22.07v-1.15m0-3.25v3.25m73.71-5.06-2.69,1.41m11.77-16.21-3.14,1.14m3.14-1.14v-4.75m4.43,6L622.6,400m4.43,1.21v-5m30.58,15.18,1-1.25m-1-26,1-.25m-1,27.49V397.69m-83,40.54v1.68m-10.26,4v1.84m-24.27,8.79v-3.81m0,3.81,15.33-8.18m.51,2.2-.51-2.2M540.05,463l11.5-6.8m-11.5,6.8v-4.22"></path><path class="z" d="M555.92,448.53v5.88m-.51-8.08V452"></path><line class="z" x1="607.79" y1="396.81" x2="607.96" y2="397.09"></line><path class="z" d="M607.94,406.48V398m-.15-.25.15.25"></path><path class="z" d="M620.28,354.27l-.83.23m.83-9-.83.32m.83,8.48v-8.8m0,34.78v-26"></path><path class="z" d="M619.86,355l-.41.11m.41,0-.41.11"></path><path class="z" d="M619.86,380.24h.42m-.83,0h.41m-50.43-33.16,15.26,4m0,29v-4.32m0-.44V371m0-.48v-4.25m0-.53v-4.2m0-.58v-3.86m0-2.53v-3.53m-15.26,6.09V347.07"></path><path class="z" d="M584,380.09v-4.35m0-.44V371m0-.49V366.2m0-.54v-4.23m0-.58V357m0-2.55v-2.83m0,0-13.55-3.43"></path><line class="z" x1="583.95" y1="380.7" x2="584.69" y2="380.68"></line><path class="z" d="M583.88,380.09v-4.35m0-.44V371m0-.49v-4.29m0-.53v-4.24m0-.58v-3.9m0-2.54v-2.78m0,0-13.48-3.41"></path><path class="z" d="M570.62,381.16l3.29-.12m3.08-.11,6.89-.23m2.26-.07-1.45.05m0-39.67-17.25-6.22"></path><path class="z" d="M586.14,380v-4.26m0-.43V371.1m0-.47v-4.19m0-.53v-4.14m0-.57v-3.84m0-2.48V344.36"></path><path class="z" d="M567.44,381.27v-1.43m0-.41v-3.35m0-.38v-3.34m0-.5v-3.17m0-.64v-3m0-.77v-2.13m0-3.68V334.79m.53,46.46h-.53m71.29-.41-.73.06m0,0-17.72-.67m18.45-41.16-.73-.59m0,0-17.72,7"></path><line class="z" x1="638" y1="380.92" x2="638" y2="338.5"></line><path class="z" d="M562.6,334.5,559.08,341m3.52,20.7V334.5m-3.52,29.59V350m0-2.71V341m2.92,5.34L559.34,350"></path><line class="z" x1="559.32" y1="350.01" x2="559.32" y2="363.93"></line><line class="z" x1="560.12" y1="367.17" x2="560.67" y2="366.9"></line><line class="z" x1="559.32" y1="350.01" x2="561.16" y2="350.41"></line><path class="z" d="M548.1,371.59V351.36m.4-1.23-.4,1.23m-1.58,21.24V356.09m0,0-.25.75m92.46,23.1,7.65.21m-7.65-31.39,7.65-2.2m0,33.59V346.56m-30.24,36.53-1.67-.13m4.94-.15-3.27.28m0-67.31-2.93,2.35m6.2.56-3.27-2.91"></path><line class="z" x1="616.14" y1="383.09" x2="616.14" y2="315.78"></line><path class="z" d="M652.29,379.24l4.6.09M652.29,356l4.6-.86m-4.6,1.53V356M548.1,351.36l-1.58,4.77"></path><path class="z" d="M548.05,352.15l-1.5,4.41m0,0,.47.07"></path><path class="z" d="M547.4,354.6l-.38,1.09m.38,12.44V354.6"></path><line class="z" x1="547.06" y1="356.19" x2="547.36" y2="355.34"></line><line class="z" x1="547.36" y1="367.77" x2="547.06" y2="368.13"></line><path class="z" d="M547.06,368.13V356.19m0,0h.3"></path><line class="z" x1="547.4" y1="354.6" x2="547.82" y2="353.39"></line><line class="z" x1="547.82" y1="367.64" x2="547.82" y2="353.39"></line><line class="z" x1="547.82" y1="353.39" x2="548.05" y2="353.43"></line><path class="z" d="M547.78,354.17l-.34.94m0,0v12.56"></path><line class="z" x1="547.44" y1="367.67" x2="547.78" y2="367.26"></line><line class="z" x1="547.44" y1="355.11" x2="547.78" y2="355.17"></line><path class="z" d="M546.55,369.11v.57m1.5-1.61v-.71m-1.5,2.3H547m0,2.5v-2.5m.74-.74.28-.28"></path><line class="z" x1="549.06" y1="348.39" x2="547.99" y2="348.16"></line><line class="z" x1="545.24" y1="357.6" x2="545.99" y2="357.71"></line><line class="z" x1="547.99" y1="348.16" x2="547.99" y2="346.59"></line><path class="z" d="M549.06,348.36v-1.55m-3.82,10.76v-1.05M562,349.36l-.82,1m0,12.29V350.41"></path><path class="z" d="M562,350.13l-.7.84m0,0v11.64"></path><path class="z" d="M562,362.16v-10.5m0-1.26-.52.61m0,11.48V351"></path><path class="z" d="M561.59,351.58l.39-.44m-.39,11.22V351.58m0,0,.37.08"></path><path class="z" d="M558.86,364.24v-13.6m-1.86-.39,1.86.39"></path><line class="z" x1="549.06" y1="373.18" x2="547.99" y2="373.15"></line><line class="z" x1="545.24" y1="374.47" x2="545.99" y2="374.48"></line><line class="z" x1="547.99" y1="373.15" x2="547.99" y2="371.58"></line><path class="z" d="M549.06,373.18v-1.55m-3.82,2.84v-1.05M557,351v-.72"></path><line class="z" x1="549" y1="349.34" x2="549" y2="348.56"></line><path class="z" d="M548.5,350.82v-.73m8.5.16-1-.2m1,17.59v-.72"></path><line class="z" x1="549" y1="367.05" x2="549" y2="366.28"></line><path class="z" d="M548.5,367.59v-.73M557,372v-.69"></path><line class="z" x1="549" y1="371.63" x2="549" y2="370.9"></line><path class="z" d="M548.5,371.61v-.38m1.06-20.37.43-1.14m-.43,21.2V367.6m0-1.28V350.86"></path><path class="z" d="M550,349.72v16.64m0,.84V371"></path><path class="z" d="M556,371.22v-3.59m0-.8V350.94m0,0-6-1.22"></path><line class="z" x1="549" y1="380.9" x2="549" y2="373.2"></line><path class="z" d="M546,350.84l3-12.2m0,0,9.86,2.79"></path><line class="z" x1="549" y1="346.82" x2="549" y2="338.64"></line><path class="z" d="M558.86,347.59v-6.16m-12.62,16.75H546m.26-.76v-.55m0,13.43H546m0,0v-.53m.26.25v-.55m1.66,2.19v1.55m0-26.38v1.53m11,1.6v.55"></path><path class="z" d="M562,346.36l-1-.26m0,0-2.56,3.73"></path><line class="z" x1="561.98" y1="344.69" x2="560.94" y2="344.41"></line><line class="z" x1="560.94" y1="346.08" x2="560.94" y2="344.41"></line><line class="z" x1="561.98" y1="346.34" x2="561.98" y2="344.69"></line><path class="z" d="M546,374.47h-.74m0-1.06v1.06m.74-16.84-.74-.1m0-1.06v1.06"></path><line class="z" x1="655.6" y1="370.82" x2="656.52" y2="370.77"></line><path class="z" d="M652.66,369.9l-1,.06m4.87.81-3.86-.87"></path><path class="z" d="M656.52,359.05l-3.86-2.45m3.86,14.17V359.05"></path><path class="z" d="M652.66,369.9V356.6m3.72,2.85-3.54-2.19m3.54,2.19-.47.07m.47,10.72V359.45"></path><path class="z" d="M654.34,358.94v10.32m-1.42-11.17,1.42.85m.35-.46-1.85-1.12"></path><path class="z" d="M652.92,357.94l1.61,1m0,0v10.42"></path><path class="z" d="M655.58,369.7V360m0,0-.89-.52m0-.65,1.22.74m0,10.61V359.52"></path><path class="z" d="M655.77,359.92l-1.08-.63m1.08,10.46v-9.83"></path><line class="z" x1="634.43" y1="366.23" x2="635.73" y2="366.08"></line><line class="z" x1="630.08" y1="364.81" x2="628.72" y2="365"></line><line class="z" x1="628.72" y1="365" x2="634.43" y2="366.23"></line><line class="z" x1="635.73" y1="366.08" x2="630.08" y2="364.81"></line><path class="z" d="M635.73,345.85l-5.65-3.58m0,0-1.36.53m7,23.28V345.85"></path><line class="z" x1="630.08" y1="364.81" x2="630.08" y2="342.27"></line><line class="z" x1="628.72" y1="365" x2="628.72" y2="342.8"></line><path class="z" d="M635.3,346.43l-4.7-2.9m4.7,2.9-.65.21m.65,18.49v-18.7"></path><path class="z" d="M630.6,344.2l4,2.44m0,18.34V346.64"></path><path class="z" d="M634.21,347.23l-3.61-2.12m3.61,19.15v-17m0,0-.21.1"></path><path class="z" d="M634,364.2V347.36m0,0-3.4-2"></path><line class="z" x1="649.45" y1="374.24" x2="652.29" y2="374.16"></line><path class="z" d="M652.29,374.19l-2.84.08m0-12.42,2.2-.31m.64,12.62V370.1"></path><line class="z" x1="651.65" y1="361.96" x2="649.45" y2="362.26"></line><path class="z" d="M651.91,373.75V370m0,3.73-2.46.07m0-11.54,2.2-.3m-2.2,11.44,2.1-.08"></path><line class="z" x1="651.55" y1="362.41" x2="649.45" y2="362.69"></line><path class="z" d="M651.55,362.44l-2.1.28m0-6.19,2.84-.54M607,416.18l.84-.42"></path><line class="z" x1="606.95" y1="416.18" x2="606.95" y2="396.94"></line><path class="z" d="M602.06,404.46v-6.28m4.6,8.28V397"></path><path class="z" d="M602.31,398.11v6.46m.11-6.48v6.52"></path><line class="z" x1="620.93" y1="446.59" x2="622.56" y2="447.98"></line><line class="z" x1="629.67" y1="473.18" x2="629.67" y2="461.82"></line><path class="z" d="M657.25,425.47V420m0-1.85v-.68m-19,23.89-2.6,3.55m4.8-12.13,3.14-3.9m0-20.18V428"></path><path class="z" d="M643.56,428l-3.14,3.82m3.14-3.82-.32-.16"></path><path class="z" d="M643.24,409V427.8m0,0-2.82,3.39m-.48,11.33-1.72-1.16m15.43-18.69V400.92"></path><line class="z" x1="639.94" y1="442.52" x2="639.94" y2="411.25"></line><line class="z" x1="638.22" y1="441.4" x2="638.22" y2="412.55"></line><line class="z" x1="653.41" y1="422.3" x2="653" y2="422.14"></line><line class="z" x1="647.87" y1="424.6" x2="647.87" y2="405.38"></line><line class="z" x1="644.21" y1="429.25" x2="644.21" y2="408.14"></line><line class="z" x1="644.21" y1="429.25" x2="643.56" y2="428.92"></line><path class="z" d="M647.53,406.36v17.78m0,0-2.92,3.64m2.92-3.64-.31-.14"></path><path class="z" d="M647.22,406.6V424m0,0-2.61,3.23m8.11-9.7V401.71m0,15.82-1.8,2.24"></path><path class="z" d="M650.92,419l1.55-1.89m0,0V402m0,15.1-.27-.09"></path><path class="z" d="M650.92,418.52,652.2,417m0,0v-14.8"></path><path class="z" d="M648.2,423.36l2.44-3.05m0,0V404m0,16.31-.29-.12"></path><path class="z" d="M648.2,422.8l2.15-2.66m0,0v-16m-9.93,30.22v1.06m13-16.91v-.75m0,0-.69-.25"></path><line class="z" x1="647.86" y1="424.88" x2="648.19" y2="424.46"></line><path class="z" d="M648.19,430.61l-.33.47m5.14-12v3.07m0,0-4.81,6.72m-.8,1.11-7,9.73"></path><path class="z" d="M629.89,416.1l-1-.42m1,3.13V416.1"></path><line class="z" x1="628.92" y1="418.36" x2="628.92" y2="415.68"></line><path class="z" d="M629.89,459.36l-1-.89m1,3.59v-2.7"></path><path class="z" d="M628.92,461.11v-2.67m-6.36-42.62v-.39"></path><line class="z" x1="629.67" y1="419.12" x2="629.67" y2="418.7"></line><path class="z" d="M622.56,451l.83.73m-.83-8v-1.22"></path><line class="z" x1="629.67" y1="449.44" x2="629.67" y2="448.13"></line><path class="z" d="M635.62,441.69v-1.17M622.56,451v-1.22"></path><line class="z" x1="629.67" y1="457.35" x2="629.67" y2="456.04"></line><path class="z" d="M635.62,448.75v-1.17m0,1.17-.6.87m-.91-1.88v-4.08m0-3v-24.9m-4.66,38.42,4.66-6.45"></path><path class="z" d="M629.45,419v27.43m0,2.81v4.92"></path><path class="z" d="M624.15,449.64V445m0-2.64V416.56m5.3,37.63-5.3-4.55m-5.52-38.38.78-.41"></path><line class="z" x1="630.64" y1="415.58" x2="629.89" y2="416.1"></line><path class="z" d="M630.64,418.25l-.75.56m-11.26-7.55v2.36m12,2v2.67m-12,30.84.78-.85"></path><line class="z" x1="630.64" y1="458.22" x2="629.89" y2="459.33"></line><path class="z" d="M630.64,460.89l-.75,1.14m-11.26-12.94v2.36m12,6.77v2.67m21.65-62.39,1.36.26m0,0-13.71,9.38"></path><line class="z" x1="639.94" y1="408.14" x2="638.22" y2="407.62"></line><path class="z" d="M638.22,409.36v-1.7m-75-40.72v2.57m0,.54v2.69m0,.43V376m0,.32v2.84m0,.36v2m-.49,0h.49m2.88-15.77v2.89m0,.61v3m0,.48v3.14m0,.36v3.16"></path><line class="z" x1="563.9" y1="383.04" x2="563.9" y2="362.37"></line><path class="z" d="M563.9,362.36l2.2.27M564.65,383h-.75m50.57-.08V362.57M613,366v3m0,.39v3.05m0,.35v3.09m0,.31v3.11m.72,3.7h.36"></path><line class="z" x1="614.03" y1="383" x2="614.03" y2="362.48"></line><path class="z" d="M614,362.48l-1.08.22M614.44,383H614m.44-20.43-.44-.09m-37-1.59v4.08m0,.85V370m0,.67v4.43m0,.51v4.5"></path><line class="z" x1="574.15" y1="385.49" x2="574.15" y2="356.12"></line><path class="z" d="M574.15,356.12l2.84.54m-1.88,28.76-1,.07m0,0-.24-.06m.24-29.31-.24.15m23.11,7.2v3.69m0,.46v3.74m0,.43v3.77m0,.38v3.79m.68,4.53.35.05"></path><line class="z" x1="598.05" y1="384.3" x2="598.05" y2="359.17"></line><path class="z" d="M598.05,359.17l-1,.32m1.68,24.75-.65.06m.65-25-.65-.13m-35.32,7.94v2.52m0,.53v2.63m0,.43V376m0,.31v2.79"></path><line class="z" x1="560.76" y1="382.29" x2="560.76" y2="364.28"></line><path class="z" d="M560.76,364.28l2,.21m-1.3,17.77h-.67m9.86-18.62V367m0,.71v3.53m0,.56v3.68m0,.42v3.73"></path><line class="z" x1="568.14" y1="384.05" x2="568.14" y2="359.79"></line><path class="z" d="M568.14,359.79l2.48.37M569,384l-.84.05"></path><line class="z" x1="558.34" y1="381.71" x2="558.34" y2="365.76"></line><path class="z" d="M558.34,365.76l1.78.16m-1.18,15.77h-.6m4.39-16.13h.53m-2.59.83h-.55m-1.85-.16-.95-.09"></path><path class="z" d="M557.32,366.17l18.79-11.66m0,0,38.54,8"></path><path class="z" d="M613,362.76l-14.25-2.85m-19.78-4-1.93,1M574,358.58l-3.29,1.77m-10,5.38-.55.3"></path><line class="z" x1="560.12" y1="366.23" x2="560.67" y2="366.28"></line><path class="z" d="M563.26,365.63v.59m-5.94-1v.9"></path><line class="z" x1="576.11" y1="352.65" x2="576.11" y2="354.51"></line><path class="z" d="M614.65,361.36v1.2m-54.53,6.08h.55m0,.26h-.55"></path><path class="z" d="M558.94,368.46l1.73-.78m.76-.34,2.35-1.07m.87-.39,3.35-1.52m1-.45,4.93-2.23m1.2-.54,2.1-.95m0,0,20.49,3.23m1,.16,15,2.36"></path><line class="z" x1="613.67" y1="365.96" x2="613.31" y2="366.01"></line><path class="z" d="M560.12,368.83h.55m16.54-9.11v.45"></path><path class="z" d="M613.67,365.65V366m-53.55,5.18h.55m0,.25h-.55"></path><path class="z" d="M558.94,371.11l1.73-.55m.76-.24,2.35-.74m.87-.27,3.35-1.05m1-.32,4.93-1.55m1.2-.38,2.1-.66m0,0,20.49,2.25m1,.11,15,1.65"></path><line class="z" x1="613.67" y1="369.36" x2="613.31" y2="369.4"></line><path class="z" d="M560.12,371.36h.55m16.54-6.49v.49"></path><path class="z" d="M613.67,369.06v.3m-53.55,4.32h.55m0,.24h-.55"></path><path class="z" d="M558.94,373.75l1.73-.31m.76-.13,2.35-.42m.87-.16,3.32-.59m1-.18,4.93-.88m1.2-.22,2.1-.37m0,0,20.49,1.27m1,.07,15,.93"></path><line class="z" x1="613.67" y1="372.76" x2="613.31" y2="372.78"></line><path class="z" d="M560.12,373.9h.55M577.21,370v.45"></path><path class="z" d="M613.67,372.46v.3m-53,3.68h-.55"></path><path class="z" d="M558.94,376.36l1.73-.08m.76,0,2.35-.1m.87,0L568,376m1-.05,4.93-.2m1.2-.06,2.1-.08m0,0,20.49.3m1,0,15,.22"></path><line class="z" x1="613.67" y1="376.16" x2="613.31" y2="376.17"></line><path class="z" d="M560.12,376.43h.55m16.54-1.27v.46"></path><line class="z" x1="613.67" y1="375.86" x2="613.67" y2="376.16"></line><path class="z" d="M558.94,378.81l1.73.14m.76.06,2.35.2m.87.07,3.32.27m1,.09,4.93.4m1.2.1,2.1.17"></path><line class="z" x1="613.67" y1="379.27" x2="613.31" y2="379.26"></line><line class="z" x1="560.12" y1="378.74" x2="560.67" y2="378.73"></line><line class="z" x1="560.67" y1="378.73" x2="560.12" y2="378.73"></line><path class="z" d="M577.21,380.36l20.49-.59m1,0,15-.43m-36.46,1v.45"></path><line class="z" x1="613.67" y1="379.27" x2="613.67" y2="379.57"></line><path class="z" d="M558.94,381.46l1.73.37m.76.17,2.35.51m.87.19,3.32.73m1,.22,4.93,1.08m1.2.26,2.1.46"></path><line class="z" x1="613.67" y1="382.67" x2="613.31" y2="382.64"></line><line class="z" x1="560.12" y1="381.27" x2="560.67" y2="381.26"></line><line class="z" x1="560.67" y1="381.24" x2="560.12" y2="381.26"></line><path class="z" d="M577.21,385.45l20.49-1.56m1-.08,15-1.14"></path><path class="z" d="M558.94,381.69l1.73.4m.76.17,2.35.55m.87.2,3.32.76m1,.23,4.93,1.14m1.2.28,2.1.48m0,0,20.49-1.65m1-.08,15-1.2m-53.55-1.47h.55"></path><line class="z" x1="577.21" y1="385.45" x2="577.21" y2="385.9"></line><path class="z" d="M613.67,382.67v.3M607,449l-1.6,1.47m0,0-.53-.6"></path><path class="z" d="M607,406.59l-1.6.6m0,0-13.9-6.34m13.9,49.6V407.19m-15-6v32.65"></path><path class="z" d="M590.4,433.81l.74-.44m-.74.44-.32-.36m6.59,4.54-4.91-5.22m0,0V402m-.62,31.33V401.5m0,31.87,5.53,6"></path><path class="z" d="M596.67,438.53l-5.2-5.59m0,0V401.89m0,31.05.29-.17"></path><path class="z" d="M604.46,447.51l-7.07-7.66m0,0V405.2m-.72,35.3,8.15,9"></path><path class="z" d="M604.46,448.14l-7.38-8.07m0,0v-35m0,35,.31-.22"></path><path class="z" d="M657.61,391.21v-7m-6.24,10.2v-5.29m6.24,2.12-6.24,3.17m6.24-10.22-.36.09m.36,11.95v-5m-6.24,4v-.82"></path><path class="z" d="M657.48,411.57V398m0-1.86v-4.43"></path><path class="z" d="M654.05,393.74v1.89m.19-2v2m2.83-3.28v3.73m0,2.31v12.76m0,0-.64.78m1-.42v-13.4m0-1.95v-4.37"></path><line class="z" x1="654.63" y1="395.72" x2="654.63" y2="393.24"></line><line class="z" x1="656.5" y1="412.64" x2="657.39" y2="411.54"></line><path class="z" d="M657.25,392.28v3.86m0,2.08v13m0,0-.82,1"></path><path class="z" d="M654.79,395.75v-2.14M527.43,425.09l12.6-3.82m-12.6,3.82.31-1.77m104.07-21.15-.37.18m0,0L627,401.14m4.79-5.14-.37.13m.37,6V396"></path><line class="z" x1="631.44" y1="402.35" x2="631.44" y2="396.13"></line><line class="z" x1="564.32" y1="443.89" x2="563.18" y2="444.52"></line><path class="z" d="M555.92,385.83v62.7m-.51-57.27v55.1"></path><path class="z" d="M555.92,385.83l-.51-.27m0,5.7v-5.7m3,5.86v-4.27"></path><line class="z" x1="557.19" y1="386.5" x2="557.19" y2="447.83"></line><line class="z" x1="557.19" y1="447.83" x2="555.92" y2="448.53"></line><line class="z" x1="563.18" y1="395" x2="563.18" y2="444.52"></line><line class="z" x1="563.18" y1="444.52" x2="557.19" y2="447.83"></line><line class="z" x1="573.64" y1="402.86" x2="573.64" y2="438.75"></line><line class="z" x1="573.64" y1="438.75" x2="574.58" y2="438.23"></line><line class="z" x1="568.64" y1="399.1" x2="568.64" y2="441.51"></line><line class="z" x1="568.64" y1="441.51" x2="573.64" y2="438.75"></line><line class="z" x1="567.59" y1="398.31" x2="567.59" y2="442.09"></line><path class="z" d="M567.59,442.09l1-.58m-4.32,1.21,2.87-1.56"></path><line class="z" x1="567.19" y1="398.01" x2="567.19" y2="441.16"></line><path class="z" d="M567.59,442.09l-.4-.93M584.69,341l28.52-22.88M584.69,343.9V341m28.52-22.88v4.72"></path><line class="z" x1="613.21" y1="322.85" x2="584.69" y2="343.9"></line><path class="z" d="M613.21,325.3l-27.07,19.06m-1.45-.48,1.45.48m73,35h-.48m0,0h-1.73M659.14,355l-.48-.41m0,0-1.73.33"></path><line class="z" x1="658.62" y1="379.38" x2="658.62" y2="354.55"></line><path class="z" d="M649.45,380.13l-.9.08m.9-33.49-.9-.78m0,0-2.17.62"></path><line class="z" x1="648.55" y1="380.21" x2="648.55" y2="345.94"></line><path class="z" d="M567.44,381.27H566.1m1.34-46.53-4.18-1.5m0,0-.66,1.21"></path><path class="z" d="M563.26,381.42v-2m0-.35v-2.85m0-.32v-2.8m0-.43V370m0-.54v-2.58m0-5.6v-28"></path><line class="z" x1="559.08" y1="341.02" x2="558.86" y2="341.43"></line><line class="z" x1="585.09" y1="402.46" x2="585.09" y2="427.89"></line><line class="z" x1="585.09" y1="427.89" x2="589.15" y2="425.83"></line><line class="z" x1="584.58" y1="427.33" x2="585.09" y2="427.89"></line><line class="z" x1="584.58" y1="427.33" x2="584.58" y2="429.55"></line><line class="z" x1="601.64" y1="404.27" x2="601.64" y2="398.28"></line><line class="z" x1="658.07" y1="417.46" x2="657.25" y2="417.18"></line><path class="z" d="M657.25,417.51l.64.22m0,0,.18-.27"></path><path class="z" d="M657.51,418.93l.38.13m0,0,.18-.28m0-1.32v1.32"></path><line class="z" x1="657.89" y1="417.73" x2="657.89" y2="419.06"></line><line class="z" x1="654.14" y1="397.3" x2="655.6" y2="396.35"></line><line class="z" x1="651.97" y1="395.75" x2="655.6" y2="396.35"></line><path class="z" d="M652.39,395.51l-.42.24m.42-.24,4.86.79m-1.79,1.23-1.32-.23M652,397v-1.29m5.28.87v-.32M652,397.68V397m0,0,.59.1m4.69,16.39v-.66m-1.79,3v-.7m0,4.94v-.75m0,.71.21-.31m.76-2.9-.76,1.06m-2.9-19.77v-.36m.88.93,1.81-1.23m-1.81,25.18,1.81-2.6m-3.07-24.6-2.28-.37"></path><line class="z" x1="648.55" y1="395.19" x2="651.97" y2="395.75"></line><path class="z" d="M651,395.13v-5.9M645.3,403V391.23m3.28,9.69v-5.73"></path><line class="z" x1="650.11" y1="395.14" x2="649" y2="394.96"></line><path class="z" d="M649,395l-.45.23M649,395v-5"></path><line class="z" x1="650.11" y1="395.14" x2="650.11" y2="389.53"></line><path class="z" d="M650.33,395l-.22.11m8,1.13v1.33"></path><line class="z" x1="657.89" y1="396.4" x2="657.89" y2="397.74"></line><path class="z" d="M616.33,462.66l1.49,1.66m-27.74-39-.93.47"></path><line class="z" x1="607.54" y1="416.52" x2="606.95" y2="416.18"></line><line class="z" x1="619.45" y1="394.5" x2="617.93" y2="394.17"></line><path class="z" d="M616.14,383.09l-43.26,3.68m-32.83,6.15v-.77"></path><path class="z" d="M647.45,380.18h-1.07m-91.21,1.55h-.46m0,0-11.66.4m0,0-1.28-1.77m0,0-.38-.53m4.62-.06v.5m73.44,2.34,6.76.46m0,0,3,.2m0,0,22.09-2.38m0,0,4.7-.53m-83.12,14.39-14.45-7.6m17.68,17.57-1.53-1.15m-1.7-8.82,3.23-.5m8.47,8.34-8.47,2.13m55.25-8.6-1.69.59M657.25,387v-2.77m0,0v-3.89"></path><line class="z" x1="648.55" y1="380.21" x2="619.45" y2="382.58"></line><path class="z" d="M566.52,446.28l-2.2,1.28m0,0-4.67,2.71m4.47,18.55-.41.31m0,0v4.92m45.5-15.69.69-.74m0,0,1-1.05m-36.31-21.86,10-5.2m0,0,.51-.26"></path><line class="z" x1="515.76" y1="470.08" x2="540.03" y2="456.77"></line><path class="z" d="M515.76,472.43,540,458.79m-2.75-148.17,1.39,41m95.05,51.64v-.57m0,0v-7.4"></path><line class="z" x1="648.55" y1="395.19" x2="648.55" y2="390.08"></line><path class="z" d="M613.51,459.52V414.73m0,0V395.29m5.94,15.58v-9.8m0,0V394.5M608,416.36v-7.53"></path><path class="z" d="M539.81,417.61v2.17m0,0v1.16m.24,33.58v2.24"></path><path class="z" d="M540,450.71v6.06m0,0v2m30.4-110.56v8.28m68.33,24.37v-.92M562,349.36v-3m57.43,36.47v-.22"></path><line class="z" x1="546.55" y1="356.56" x2="546.55" y2="369.11"></line><path class="z" d="M547,372.21l-.48.32m.47-4v-11.9m0,0v-.94m.34-.35v.89m0,0v11.54m.42-.51V355.17m0,0v-1"></path><line class="z" x1="547.25" y1="368.93" x2="548.05" y2="368.07"></line><line class="z" x1="549" y1="346.82" x2="547.99" y2="346.59"></line><path class="z" d="M557,351l-1-.19m0,0-7-1.42m0,0-.45,1.32"></path><path class="z" d="M556.05,350.05l-7-1.49m0,0-.45,1.37"></path><path class="z" d="M557,367.64l-1-.07m0,0-7-.52m0,0-.45.48"></path><path class="z" d="M549.56,366.36H549m0,0-.45.52m1,4.12H549m0,0-.45.3M546,353.75v-.66m0,0v-2.25"></path><line class="z" x1="546.01" y1="358.15" x2="546.24" y2="357.48"></line><path class="z" d="M546,357.62l.23-.69m-.23,1.22v-.44"></path><line class="z" x1="546.01" y1="370.26" x2="546.24" y2="370.01"></line><path class="z" d="M546,369.73l.23-.26m-.23,3.42.23-.15m1.69.43H549"></path><line class="z" x1="558.27" y1="373.45" x2="549.06" y2="373.18"></line><line class="z" x1="547.93" y1="348.34" x2="549" y2="348.56"></line><line class="z" x1="558.97" y1="350.49" x2="549.06" y2="348.39"></line><path class="z" d="M558.38,349.81l.59.13m-.11-2.35-.48.74m0,1.48v-.9m0,0v-.55m93.91,21.77,3.31.72m-2.94-14.22-.37.06m0,0-.64.12m0,4.76v-4.76m1.19.56v12m3.07.74.47.11m-1.69-.4v-.37m-.35-.21-1.42-.37m0,0v-10.8m1.77,11.38.89.23m-25-5.7,4,1m0,0,.65.15m-4.63-1.77,3.35.85m0,0,.26.06m17.34,9.09v-10.9m-43.76,53.3v-6.91m11.66,39.34,1.48-1.6m-1.52,1.65,3.15,2.8m7.11,6.31,5.35-7.73m-15.61,12.64v-3.43m0,0v-6.64m21-41.08,2.82-2.13m0,0,.32-.24m4.3,22.34-7.92,11.44"></path><path class="z" d="M653.41,417.78V401.19m-5.55,29-7.44,10.56"></path><path class="z" d="M644.21,429.25l3.49-4.44m-4.14,4.11v-1m1.05-19.34,2.61-2m0,0,.31-.24m-2.92,21.42v-.55m0,0V408.62m7.86-6.64-.27.21m0,0-1.28,1m0,17.57v-.95m0,.95-2.92,3.6m2.61-20.44-.29.23m0,0-2.15,1.66m0,0v17m0,0v.55"></path><line class="z" x1="647.86" y1="424.88" x2="640.42" y2="434.38"></line><line class="z" x1="640.42" y1="435.44" x2="647.86" y2="425.77"></line><line class="z" x1="647.86" y1="431.08" x2="647.86" y2="430.2"></line><path class="z" d="M648.19,429.72v.89m-18.3-11.8-.22-.11m0,0-.75-.34m28-21.8.38.06m0,0,.26.05"></path><line class="z" x1="657.51" y1="396.67" x2="630.64" y2="415.58"></line><path class="z" d="M628.92,415.68l.75-.51M657.51,398v-.35m0,0v-1M629.89,462l-.22-.21m0,0-.75-.71m28-43.05.38.13m0,0,.26.09"></path><line class="z" x1="657.51" y1="418.28" x2="630.64" y2="458.22"></line><path class="z" d="M628.92,458.44l.75-1.09m27.84-37.72v-.7m0,0v-.65m-27.84.84,4.44-3.35"></path><line class="z" x1="623.39" y1="450.54" x2="623.39" y2="451.77"></line><path class="z" d="M629.45,449.27l.22.17m0,0,4.44-5.78"></path><path class="z" d="M622.56,442.53l.83.66m0,0,6.28,4.94m0,0,5.35-6.85m0,0,.6-.76"></path><line class="z" x1="623.39" y1="451.77" x2="629.67" y2="457.35"></line><path class="z" d="M622.56,449.82l.83.72m0,0,6.28,5.5m0,0,5.35-7.61m0,0,.6-.85m-6.7-31.9-10.29-4.42"></path><path class="z" d="M629.67,415.17l1,.41M619.48,414l-.82-.38"></path><line class="z" x1="628.92" y1="458.44" x2="618.63" y2="449.09"></line><path class="z" d="M629.67,457.36l1,.87m7.58-50.6,4-2.62M566.1,362.64v.23m0,0v2m0,14.82v1.67m0,0v1.5m46.9-20.1v2.78m0,14v3m-36-25.93V357m0,0v2.87m20-.29V363m0,20.22v.69m-34.29-2.43v.67m7.89-21.95v.27m0,0v2.38m0,20v1M560.1,367.2v.51m0,.56v.37m-2.8-3.34,1.54-1m17.25-11.59,7.77,1.75m0,2.54-5-1M568,361.87l-.53.28m0,0-1.34.72m-2.32,1.26-.52.28m0,0-.53.29M559,368.23l1.18-.55m0,0,.55-.26m.76-.35,1.3-.6m1.92-.89,1.45-.68m2.88-1.33,1.64-.76m0,0,3.29-1.52m1.2-.56,1.88-.87m0,0,.22-.1m0,0,6.67,1.08m14.82,2.39L613,365.54m0,0,.72.11m-.36.36L613,366m0,0-14.25-2.22m-14.82-2.31-6-.93m0,0-.92.4m0,0-.93.4m-2.15.94-3.29,1.44m0,0-.81.35m-3.71,1.62-.72.31M560.69,368l-.55.24m0,0-.59.26m-.59,2.37,1.18-.38m0,0,.55-.18m.76-.25,1.3-.43m1.92-.63,1.45-.47m2.88-.94,1.64-.54m0,0,3.29-1.08m1.2-.39L577,365m0,0,.22-.07m0,0,6.67.76m14.8,1.7L613,369m0,0,.72.09m-.36.34H613m0,0-14.25-1.56m-14.82-1.61-6-.65m0,0-.92.28m0,0-.93.29m-2.15.65-3.29,1m0,0-.81.25m-3.71,1.13-.72.22m-2.65.8-.65.2m-1.41.43-.55.16m0,0-.59.18m-.59,2.39,1.18-.23m0,0,.55-.1m.76-.14,1.3-.26m1.92-.36,1.45-.28m2.88-.55,1.64-.31m0,0,3.29-.63m1.2-.23,1.88-.35m0,0h.22m0,0,6.67.44m14.82,1,14.25.94m0,0,.72.05m-.36.32H613m0,0L598.72,372m-14.82-.91-6-.37m0,0-.92.15m0,0-.93.17m-2.15.37-3.29.56m0,0-.81.15m-3.71.63-.72.13m-2.65.46-.65.11m-1.41.24-.55.1m0,0-.59.1m-.59,2.39,1.18-.06m0,0h.55m.76,0,1.3-.07m1.92-.1,1.45-.09m2.88-.15,1.64-.09m0,0,3.29-.18m1.2-.06,1.88-.11m0,0h.22m0,0,6.67.13m14.82.28,14.25.27m0,0h.72m-.36.31H613m0,0-14.25-.2m-14.82-.22-6-.09m0,0H577m0,0h-.93m-2.15.09-3.29.13m0,0h-.81m-3.71.15h-.72m-2.65.11h-.65m-1.41.05h-.55m0,0h-.59m18.38,3.86-.92-.07m0,0-.93-.08m-2.15-.17-3.29-.26m0,0-.81-.06m-3.71-.3h-.72m-2.65-.21-.65-.05m-1.41-.12h-.55m0,0-.59-.05m53.78.46H613m0,0-14.25.4M559,379.09l1.18.11m0,0,.55.06m.76.07,1.3.12m4.71.44.53.06m1,.09,1.64.15m0,0,3.29.31m1.2.12,1.88.17m0,0h.22m21.49-.7,14.25-.47m0,0h.72m-35.8,5.74-.92-.19m0,0-.93-.2m-2.15-.45-3.29-.69m0,0-.81-.18m-1.84-.38-1.06-.23m-3.13-.66-.52-.11m-2.59-.55-.55-.11m0,0-.59-.12m41.34,2.14-2.17.16m-1.34.11H597m0,0-19.11,1.46m28.75,21.15.29.13M607,449V416.82m-16.87,16.63v-8.09m14.74-17.42-8.15-3.83m8.15,45.74v-.32m0,0V407.94m-13.35-6.05.29.14m0,0,4.91,2.34m.41.68.31.15m0,0,7.07,3.42m0,0v38.89m0,0v.63m49.78-54.69-2.67,1.4m0,.21,2.48-1.32m.74-.13,2.28-1.23m-72.49,14.29-.51.15m0,0-9.49,2.78M539.8,419.79l-12.06,3.57m36.58-27.47v46.87m0,0v1.17"></path><path class="z" d="M540.05,392.92V450.7m0,0v3.82"></path><path class="z" d="M540,421.27v29.44m119.1-71.35V357m0,0V355m-10.55,25.25h-1.1m2,0v-1"></path><line class="z" x1="563.26" y1="365.63" x2="563.26" y2="364.41"></line><path class="z" d="M584.58,407.75v19.61m4.57-25v-.88m11,.71v1.49m52.39-6.49,1.46.17"></path><line class="z" x1="657.25" y1="396.3" x2="656.87" y2="396.56"></line><path class="z" d="M656.87,396.56l-1.41,1m-2.69.3.43.08m2.47,1.57-.21.17m-3.49-.94v-1"></path><path class="z" d="M652.56,398.36v-.54m0,0v-.65"></path><path class="z" d="M655.67,415.6l-.21.27m1.13-3.2.66.2"></path><path class="z" d="M657.25,412.87l-1.58,2m0,0-.21.27"></path><line class="z" x1="656.56" y1="416.62" x2="657.25" y2="416.85"></line><path class="z" d="M657.25,416.85l-1.58,2.25m0,0-.21.3"></path><path class="z" d="M657.25,417.51v-.33m0,0v-.33m-.82-17.94v13m0,2.64v2m0,0v.33M651,395.13l-.64-.1m7.28,2.66.28.05m-35.3-2.56-3.14-.68"></path><path class="z" d="M540.05,392.15v-7m0,0v-2.89m43.9-1.6-7,.24"></path><path class="z" d="M574.58,403.57l-.94-.71m2.47-8.61,41.82-6.53m0,0,1.48-.23m-34.32,15-.51.13m-19.93,65.83-.53.4m46.77-12.21,2.62,2.91M608,408.78v-1.63"></path><path class="z" d="M564.32,443.89l3.27-1.8m-27.54,14.67v2m0,0V463"></path><path class="z" d="M619.86,380.23V355.08m18.87,24.86V348.76m0,0v-9.67m-76.75,11v-.73M548.5,371.23v-3.64m-2.23,5.13V370m66.94-9V325.3m0,0v-2.45m6.2,59.74V321.05m0,0v-2.36"></path><line class="z" x1="546.55" y1="369.68" x2="546.55" y2="372.53"></line><path class="z" d="M548.05,371.53v-2.84m0,0v-.62m0-.69-.23.26m0,0-.42.49m-.38.44-.47.54"></path><line class="z" x1="546.55" y1="369.68" x2="547.21" y2="368.97"></line><line class="z" x1="547.21" y1="372.1" x2="547.21" y2="369.53"></line><path class="z" d="M547.25,368.36V369m0,0v3.14m.68-23.73-2.66,9.18"></path><line class="z" x1="546.01" y1="353.75" x2="545.27" y2="356.46"></line><line class="z" x1="547.93" y1="373.17" x2="545.27" y2="374.46"></line><path class="z" d="M548.5,371.61h-.4M546,372.9l-.74.5"></path><path class="z" d="M556.05,350.05v.73m0,0v16.06m0,4.38v.7"></path><path class="z" d="M550,366.36h-.43M550,371h-.43"></path><path class="z" d="M548.55,371.61v-.41m0,0v-3.67m0,0v-.73"></path><path class="z" d="M546,379.69v-5.21m12.37-25.57-9.32-2.07m10,3.12h.24m1.62-5.6-1.86,2.84m0,0-.22.34m92.79,22.37.26.06m0,0,.38.08m-.64-8.14v-.42m1.19,7.85,1.85.45m0,0,1.22.29m-1.22-.66v-10m-24.09-15.9v.67m0,1.16v18m0,0V364m-22.81,44.85v-1.63m45.86,15.49-5.46,7.9m2.73-27.54-3,2.31m0,0-3.66,2.76"></path><path class="z" d="M653.41,422.3v-3.77m0,3.77-5.22,7.42m0,0-.33.48"></path><line class="z" x1="650.92" y1="419.77" x2="650.92" y2="418.97"></line><line class="z" x1="653.41" y1="417.78" x2="648.19" y2="424.46"></line><line class="z" x1="647.86" y1="425.77" x2="648.19" y2="425.33"></line><path class="z" d="M647.86,430.2v-4.43m0,0v-.89"></path><path class="z" d="M648.19,428.86v.86M635,415l-4.38,3.3m-1-3.08,8.55-5.85m19.29,10.31-.26.41m0,0-26.61,40.85m-8.08-45.07.83.38m0,0,.76.36m0,0,5.3,2.47m0,0,.22.09m4.44-3.35.91-.69m0,0,.6-.45M622.51,448v1.84"></path><line class="z" x1="623.39" y1="444.41" x2="623.39" y2="450.54"></line><path class="z" d="M624.15,445l5.3,4.25m4.66-5.61.91-1.19m0,0,.6-.78m0,5.89V445m0,0v-3.26"></path><path class="z" d="M635,449.62v-1.19m0,0v-6m0,0v-1.19"></path><path class="z" d="M619.45,410.87l10.22,4.3m-.75,45.94-9.51-8.92m0,0-.78-.74M642.25,405l3-2m-81.49-20.23v-.3M577,380.94v1.56m0,0v2.62m-3.08-2.47v-1.6m23.11-.94v1.31m0,0v1.76M562.74,364.7v.88m0,0v.88m0,12.94v2m-2.06.66v-.26m10-.67v1.65m-2.65.13v-1.69m-7.85-14.83v.75m0,1.7v1.62m0,.9v1.9m0,.62v2.19m-1.85,5.56v-.21m.59-17.21.22-.15m7,.81,1.34-.62m0,0L568,364m0,.78-.53.23m0,0-1.34.59m-2.32,1-.52.23m0,0-.49.21m0,0-.65.28m.65,2.24.49-.16m2.88-.94,1.34-.44m0,0,.53-.17m0,.65-.53.16m0,0-1.34.41m-2.88.87-.49.15m0,2.63.49-.09m2.88-.55,1.34-.25m0,0,.53-.1m0,.51-.53.09m0,0-1.34.23m-2.88.5-.49.09m0,2.74h.49m2.88-.16,1.34-.07m0,0h.53m0,.39h-.53m0,0h-1.34m-2.88.12h-.49m5.24,3.2h-.53m0,0-1.42,0m-2.88-.23h-.49m22,1H584m-.07,0-6,.17m-15.19-.94h.49m1.43.13,1.45.14m0,0,1.34.12m16.51.7h.74m0,0,1.45-.05m-19.23,2.52-.81-.17m0,0-.72-.15m-2.12-.45-.53-.11m0,0-.65-.14m51.23.67H613m0,0-12.08.91M607,416.82v-.64m0,0v-9.59m-10.28-2.48-5.53-2.61m0,0-.74-.34m6.27,39.34v-1.14m0-1.39V404.36m0,0v-.26m58-10.87-.39.21M540,392.15v24.33m34.55-5.7v24m0,0v1m82.34-56.42v-24.2m0,0v-.25m-37.44.25v-.63m0,0v-8.71m0,0V321.08m-34.87,85.59v1.08m15.59-6.34v.73m51.8-4.46.59.11m0,0h.21m3.66,1.08-.76.57m1.58,14.05-.82,1.07m0,0-.76,1m1.58,1.91-.38.55m0,0-1.2,1.74m-.21-.4v-3.53m.21,3.93v-.7m0,0V418m0,0V415.6m.76-3.64v.28M654,397.36l-.79.51m-.64.42-.27.17m-.92-3.3-.4-.07"></path><path class="z" d="M657.25,396.3l.64.1m-.41,15.17-.89,1.1"></path><path class="z" d="M629.67,396.71l-2.65-.57m0,0-4.43-1m-64.16-8-1.24-.65m0,0-1.27-.67m33.23,15.6-4.06,1"></path><line class="z" x1="658.62" y1="379.38" x2="649.45" y2="380.13"></line><path class="z" d="M573.45,461.76l-.68.51m0,0-8.12,6.15M608,407.15v-.68m-46-44.33V351.63m-13.5,15.23v-16m103.79,28.4v-5m-104.24-6.9V353.43m0,0v-1.28m0,19.38-.8.54m0-2.54V369m0,0v-.61M548,346.8l-1.92,7m11,17.52v-3.63m0-.72V351"></path><path class="z" d="M556.05,366.84v.73m0,0v3.65"></path><path class="z" d="M556,366.83l-6-.48m6,4.87-6-.28"></path><path class="z" d="M548.55,366.8V350.66m0,0v-.73"></path><path class="z" d="M546.24,372.74v-2.47m0-12.09v-.7m0,0v-.55m105.41,13v-8m-21-17.78v.91m0,0v.3m-22.81,61.86v-.81m27.83,42.34,4.32-6.23m13.47-41.33-.69.52m0,0-1.8,1.36m-6.71,5.07-.65.49m0,0L640.47,411m0,20.78v1m0,0v1.58m0,1.06v4.26m0,0v1.06M651,419v-.45m-2.78,6.86L653,419.1m0,0,.41-.54m-5.22,5.93v.87m0,0v3.53m-10-19.54,1.72-1.18m-17.38,35.61V448"></path><line class="z" x1="623.39" y1="443.19" x2="623.39" y2="444.41"></line><path class="z" d="M622.56,443.75l.83.66m0,0,.76.61"></path><line class="z" x1="635.02" y1="441.28" x2="635.02" y2="415.08"></line><path class="z" d="M622.56,415.43,619.45,414m25.82-11,1.11-.72m-82.6-20v-.92m10.13-22.74v-2.39m24.79,27.9v-.36m0-.07v-.34m-28.08-3.22v1M568,384v-.24m0,0v-.34m0-.21v-.28m0-1.69V379.9m-7.85-11.29v.22m0,2.31v.22m0,2.31v.22m0,2.54v2.29m0,2.54v.23m-1-17.41.24-.16M584,354.41l.74.17m0,2.53L584,357m-21.21,9.5.52-.24m0,0,.52-.24M584,360.85l.74.12m0,.58-.74-.12m-20.69,8,.52-.17m20.17-3.6.74.09m0,.53-.74-.08m-20.17,3.64-.52.16m0,2.7.52-.11M584,370.48l.74,0m0,.48H584m-20.17,2.07-.52.09m0,2.8h.52m20.17-.6h.74m0,.44H584m-20.17.49h-.52m.52,2.89h-.52m22.88.93h-1.45m-21.43-.62.52.05m13.43,1.26,6.67-.21m2.26-.08,10.88-.36m0,0h.68m4.36,24.37.25.11m-12.23,1.52v-1.28m0,0v-2.53m6.59,37.1v-.85m0,0v-.54m60.72-46.2-2.76,1.45M540,416.48v1.07m34.55-14v6m0,0v1.18m0,25v2.46m74.87-59.06v-4.9m0,0v-.42m-64.87,30.38v2.47m4.57-2.37v-1.78m11-2.68v1.57m56.9-3-.64.49m-.76,16.69v-.7m.76-2.66v.38m0,0v.3m-3.23-15-.43.28m0,0-.21.14"></path><path class="z" d="M585.09,427.89l5,5.56m15.27,17,5.54,6.16"></path><path class="z" d="M573.64,402.86l-5-3.76m-4.32-3.25-1.14-.85m0,0-4.75-3.58m77.12,3.23-.73.25m0,0-1.1.39M608,397.09v-.4m-46-46.33v-.27m-15.71,19.3v-12M549,371.63h-.45m-2,.95-.25.17m0,0-.23.15m11-6-1-.08m1,4.43-1-.05m-9.81-.95V370m108.45-10.72v-.51m0,0v-.3m-14.27,52.63v20.08m0,0v.59m10.5-13.26V403.15m-11,8.1-1.72,1.3m0,0-2.6,1.95m0,0-.6.45"></path><path class="z" d="M623.39,415.81v.39m0,0v27"></path><path class="z" d="M635.62,440.52V414.63m-6.7,3.73-5.53-2.55m0,0-.83-.38m23.82-13.07,2.17-1.4m-84.77-19.6v-1.9m10.13,5.93v-.29m0,0v-.41m0,0v-.26m0,0v-1.82m0-21.36v-2.59m24.79,24.7v-1.81m-38-.07v-.22m7.3-1.36v-.35m-9.7,1.82v-.72m1.05-16.72,1.84-1.23m23.53-8.12,1.45.33M597,359.57l-10.86-2.21m0,0-1.45-.28m0,3.86,1.45.23m0,.57-1.45-.22m0,4.2,1.45.16m0,.53-1.45-.16m0,4.25,1.45.1m0,.47-1.45-.09m0,4.3h1.45m0,.43h-1.45m12.67,4H597m0,0-10.88.31m6.79,20.45,3.78,1.65m0,0,1.61.7m0,0,1.85.8m2.25,1,4.24,1.85m-16.56,18.89V408.47m0,0v-2.38m0-4v-.87M540,417.55v3.32m0,0v.4m109.42-47.45v-.4m-30,9.16v-2.37m0,0v-25m-34.87,47.4v.92m0,0v.69m4.57,21.63v-18m11-9.24v.55m0,0v.64m55.29,15.33V399.65m.21,15.25V399.48M654,395.63l-2.48-.4"></path><line class="z" x1="590.4" y1="433.81" x2="604.82" y2="449.85"></line><path class="z" d="M568.64,399.1l-1-.79M593,400.48l-1.48.37m0,0-1.37.35m0,0-.93.23m44.57-6.14-1.91.67m0,0-.37.13M608,406.47V398m0,0v-.9m-46-45.46v-.49m0,0v-.78m-14.77,21.7-.69.46m-.28-2.55v-.54m0,0V358.18m9.81,13.74-7-.29m58.73,34.78v-8.66m0,0v-.94m45.86,4.11L640,411.25m-17.38,4.57v26.71m26-41.61,3.42-2.21m0,0,.32-.21m-88.51-19v-.29m10.13-17.51v-.41m24.79-1.38v-.61m-38.58,19.85v1.71m0,0v.4m-1.85-.61v-7.17m27.87-18.57,27.07,6.1m0,0,1.44.32m-28.51-.13L597,363m0,0,.68.11m-.34.45-.34,0m0,0-10.88-1.7m0,4.14L597,367.16m0,0,.68.07m-.34.43H597m0,0-10.88-1.18m0,4.19,10.88.69m0,0,.68.05m-.34.4H597m0,0-10.88-.68m0,4.24,10.88.21m0,0h.68m-.34.38H597m0,0-10.88-.16m14,27.86,1.47.64m0,0,.42.19m-12.91,3.43v-2.36m0,0V404.3m-21.56-6-.4-.3m0,0-2.87-2.16m31.26,4-2.65.67m55.62-10.4-2.17.76m0,0-1.11.39m0,0-9.72,3.42M558.22,372H557m0,0h-1m99.41,27.65L653.55,401m-79.74-38.69v-.53m24.79,1.53V360m-38,21.33v-.28m88.78-18.7V362m0,0v-5.32m0,0v-9.81m5.18,49-.39-.06m-58,4-.71.18m53.54-10-.45.16M547.93,371.62l-.68.46m108.42,27.33-.21.16M573.91,366v-3.74m24.79,1.37v-.37M560.7,381v-1.75m7.3.26v-3.41m0,0v-.35m-9.7-2.22v-1.44m91.84,17.52L649,390m8.25,8.3-1.58,1.19m-91.89-20.27v-2.91m0,0V376m10.1-9.62v-.42m-13.24,13.24v-.26m-2.4-6.94v-5.72m0,0v-.46m91.18-3.11v-.41m7.62,33.83-2.28-.36m-47,1L607,397m44-7.71-.86.3m-76.2-22.77v-.42m24.79,1v-3.62M568,375.67v-3.31m0-.17v-.34m1.46-14.66,1-.65m0,0,5.71-3.84m73.34,20.77v-10.7M607,396.94l-.29.08m-6.49,1.63-3.88,1m61-12.61-5.88,2.07m0,0-.4.14m-87.19-13.33v-2.86m0-.15v-.3M574,370.68v-3.9m24.79,1v-.42M562,362.14l.62-.42m0,0,.66-.44m53.07,33.3-2.82.71m-11.2,2.82-.25.07m0,0-.42.1m0,0-1.47.37m-26.26-27.57v-.42M568,371.8v-3.23m0,0v-.31m0,0v-.34m-6.41-5.56.37-.24m1.3-.88,4.18-2.81m0,0,2-1.33m88.64,39.13-.46-.07m-51,.82-4.24,1.07m-38.64-25.5V369.8m0,0v-.26m0,0v-.29m34.92,2.18v-3.67m-38,10.93V376.4m48.52,20-1.22.31m-34.05-21.31V371.3m24.79.54v-.36M568,367.92v-3.1m0,0v-.46m0,0V364m45.54,31.25-2.69.68m0,0-1.64.41m-45.4-27.09v-2.64m0,0v-.38m0,0V366m10.13,9.79v-.39M568,364v-2.17m0,0v-2M563.81,366v-1.85m0,0v-1.69m34.92,13.14v-3.7m-38,4.44v-.25m0,0v-2.14m0,0v-.22m38,2.25v-.36M573.94,381v-.59m0,0V380m0-.1v-4.12m-13.24-2.38v-.25m0,0v-1.77m0,0v-.22m0,0v-.38m0,0v-.23m38,9.11V376m-38-7.31V368m0,2.56v-.2m0,0V369m0,0v-.22m38,12.9v-1.58m0,0v-.36m-38-11.7v-.32m0,0v-.26m0,0v-.52m0,0v-.44m0-.65v-1.45m0,1.94v-.47M546,374.47l3-1.27m9.27.28L549,373.2m120.53-19.3-50.94-76m-82.33,27.46,24.74,12m14.15-39.47L561,317.36m97.6,100,.48-.73m-201.5,25.54,82.22-23.61m34.78-10,9.2-2.64M659.1,416.6l-.86-.28m39.89,2,3.8,74.46m-44.68-76,.5.16m-.35-1-.49.68m-40.58,64.57,1.6-2.42m1.52-2.31-1.87-2.33M543,466.36l-3,1.86m0,1.54v-1.54m0,3.13v-1.59m3-1.92,9.37-6M540,468.24V465.3m3.09,4.09-3.06,2m12.17-10.78-9.2,5.75m-3,3.4,3-1.92m-3-2.56,2.86-1.74m.14,2.82.06,1.48m.06,1.53-.06-1.53m-.11-2.91,9-5.57m-9.15,4.22.06,1.39m9.68-1.73-9.48,6.12m20.18,7.45,1.91,8m-22.32-21.25,9-5.44m111.36-47.76-1.48-.39M553.05,466l-1.1.74M685.4,425.28l1.29.43M540,465.3l-45.39,27.56m120.78-8-5.17,8M688,426.14l.07,1.12m-2.68-.9v-1.08"></path><path class="z" d="M552,466.75l3.61,26.11m133.9-42,.15,2.56m-1.53-26.15-1.35-.45m-44.64-22.13-1-.27m44.28,11.86,2.12.56M661.83,410l-.18.25m1.32.66.17-.26m26.54,42.81-4.15-2.06M525.58,431.73l-68,23.23m227.94-6,1.94,1M661.4,410.45l.75.2m-21.08-6.24-.27.17m44.73,46.78v-1.24M685.36,417v-.36m2.16.95-1.09-.3m1.05-.44v.74m-68.06,59,3,3.75m.92,5.64.76-1.33m.74-1.3-.83-1m-3.1.51-1.55-2m5.48,2.53,4.35,5.41m.21,2.62-5.3-6.73m-1.59.26.83,1.07m.67-3.66-1.5,2.59m.83,1.07,5.32,6.9m-6.19-12.55L621,482.81m22.6-21.51,3-6m-12.42,26.52-4.73,9.54m17.46-35.78.34-.7M644,461.62l3-6m-3.76,6.53.41.34m-9.74,17.15-.61,1.22m7.21-9.38-.43-.4m-5,11.78.6-1.26m-2.41-.74.9,1m8.46-22.06,1.21-2.35m3.09-2.8.34-.67M652,443.27l.68.4M644,461.62l.41.33m-.81-.65-.41.81m.81-.49-.2-.16m9.65-17.38-13,27.36m-18,8.92,1.59,2m6.2,10.56,4.76-10M622.56,485l-1.6-2.08m8.28,5.93,4-7.92m11.16-18.87-.4.83m0,0-.21-.17m-.2-.16.4-.83M638.74,470,652,443.27m-16.38,38.29-1.8-2M642.51,459l.06.69m4.68-4.87-.38-.28m0,0-.34.69m1.05-1.09-.33.68m-3.49,6.58,3-6m1.18-6.71.45-.18m-7.93,22.9-.48,1m-.38-1.83.48-1m12.43-25.47-2.13,4.37m-.47.46L647.44,454M640,472.42l-1.72-1.63m14.07-28.07-.25.5M640.51,470l-.48,1m12.79-26.63-2.12,4.4m-2.35-.24-1,1.86M640,469.65l3.52-7.2m-3.3,7.4,3.5-7.24m5.93-13.71.35-.54m0,0,.36.24m3.07-4.47.24-.51m-3.31,5-.29.58m3.6-5.56-1.36-.8m.53,1.61.24-.51m-3,5.26-2.47,5.07m5.14-10.53-.25.51m-14.25,26.66.49-1m1.33-.2.22.2m.21.19,3.5-7.26m6.08-13.65.37.24m0,0,.28-.59m1.95-4.5-2.13,4.38m-.83.24-2.48,5m-9,16.91-1,2m18.41-36.74-2.83,5.66m4.74-4.69.38-.81m-19,38.28,1-2.12m-2.75.42,1.74,1.7m13.84-32.78-.48,1m2.4-7.09.91.47m2.29.16-2.8-1.4M635,477.26l-1.18,2.34m18.95-37.79,1.36.77m-17.35,36.55,2.15-4.54m-3.31,7,1.16-2.43m.41-6.24L635,477.26m19.13-34.68,2.74-5.79m-3.22,6.78.48-1M635,477.26l1.78,1.87M616.14,486l1.68-2.64m-1.49-2-2.65-3.59M612,480.08l3.39,4.8m4-4.08-1.57,2.56m71.64-32.47-.14-2.4m-30.38-10.94-.65-.33m31,10.13-1.9-.89m2,2-.07-1.14m-16.21-3v-.26M687,437l1.63.66m-1.29,9.9.07,2.34m-.11-3.45v1.11m-14.23-3.41.82.42m7.73,4.16-7.77-3.9M687,435.36V437m-28.52-.34-.64-.32m31.43,12.14-1.93-.92m-5.67,1L674,444.67m-.85-.29-7.25-3.64m-8.35-3.62.65.33m30.52.18-.09-1.63m-30.44,1.36.66.34M688.59,436l-1.59-.62m-5.28,13L674,444.54m7.74,3.87.94.47m0,.3-.94-.48m8.12-4.3.11,1.65m-1.42-3.89v-.48m-.44-.19V442m-.58-4,.13,3.34m.53-12.87L686.8,428m2,18.57V446m-.64-4,.18,3.81m-.35-7.64-.21-.08m-.2-.09v-.41m-.4-.17V437m2.17,9.78-.48-.22m-.44-4.47.18,3.82m0-4.2-.44-.19m1.2,5.82v-.56m-1.88-.87-.27-8.5m.81.33v.42m.78-.5v.42m0,0,.51,8.7M688.17,442l-.43-.19m-.57-4.39.4.17m1,4.61.19,3.83m-1.37-.11v.54m3.18-1.14-.7-.88M688.11,442l.23.1m-.68-.76.22.09m-.2.38v-.47m.28-3.17.15,3.36m.66,4.5-.23-.11m-.23-.11v.54m-.58-8.26.15,3.34m.31-13V429m1.22,2-.49.18m-1.11.73-.12-2.45m.52-.12-.35-.13m-1.07-.67V428m1.21,4.38-.38-.14m.55-3.16-1.4-.49M687,435v.35m1.08-8.12.07,1.17m-1.39-.47v-1.15m.89,5-.11-2.44m-.52,5.58.39.16m.61-3.16-.13-2.46m-.49,5.23v.39m1.53-4-.07-1m-1.28,4.66-.11-2.71m.18.07v-.35m-.25,2.91-.11-2.7m.51,3.24v-.38m.81.69-.39-6.16m0-.31v.31m.39,6.65v-.39M688,432v.35m-.39-.49-.37-.13m0,0v.34m.5,2.86-.13-2.72m-.84-3.34L687,435m.86-5.77v.31m-2-10,.29.08m.06,2.7v2.16m1.22-1.88v.74M686,419.83v2.26m-.5,28-1.92-1m2.28-26.88V422m.91,6.82v-.31m-.29-6.09.07,2.16m-.37-2.49v.29m.15.05.06,2.16m1.11,4.84v-.31m.43-6.06-.46-.4m-3.89,27.72,1.95,1m.91-33.52.23,7.08m-.18-2.45v-.24m0,0-.3-.09m-.8,2.37v-7"></path><path class="z" d="M685.36,417.36l1.08.3m-.25,4.72-.3-.09m.24-2.4.06,2.26m.38,2.75v-.26m-1.17.14,1.29.41m-1.29-.67v.26m.85-.24v.26m-.71-7v1.73m-.16,5.78v-.52m1.29.41v.54m-53.09-23.38-1.77-.47m0,.22,1.47.4m53.16,15.09v-.37m-.6.57v1.74m0,.2V422m0-2.26-.29-.08m1.12,5.47v-.26m-1-7.11v1.74m-.34-2.56v.42m-52.08-14.79.3-.15m2.45.75,1.51.4m.06.17-2.05-.56m1.48,0,.73.19m-1.69-.26-.23-.07m-.07,0,.23.06m0,0,1.51.41m-1.44-.44,1.51.4m-.19-.32H637m-1.48-.27,2.34.62m0,.23.48.13m2.75.5-2.46-.66m-3.06-.71.22.06m-2.49-.55.44.11m4.12,1.12.29-.16m.48.13-.29.16m0,0,2.48.67m-3.29-1,.24.06m-1.83-.43-.23-.06m2.92.61-.48-.13m-.31,0-.24-.07m0,.19.24.06m.29-.16-.24-.07m21.5,11.11,2.76-4m-4,4.39-.72,1m2.82-1.14-.83-.25m.39.92.44-.67m-1.64-.51-.46.64m3.28-4.59-2.82,4m-.34,1.93.7-1m-.82-.27.82.27m2.82-5.36-2.66-.71m0,.28,2.48.68m2.62,31.48.93.09m-.07-1.17.07-.23m-22.58-35.56-.46-.13m31,40-7.28-3.67m-.8-.14-6.14-3.11M641.9,405l.46.12m31.54,40-.83-.42m.87.16v.26M665,440.83l.73.37m16.9,8.67-24.46-12.42m6.9,3.15L659,437.51m6.19,4.26-2.27-1.17m-4.33-4,24.13,12m.92,1.67-1-.48m-9.48-5.48.83.42m8.72,3.88,1,.47m0,0v1.2m-18.45-10,.73.37m-.14.46.07-.23m-.76-.26-6.13-3.1m6.89,3.36-.73-.37m8,3.91-7.26-3.66M657.8,417l-.17.25m8-6.33,16.76,4.49m0,.34-16.88-4.57m12.07,3,.47.13m0,.08-.47-.13m-19.36,3.86.55-.83m18.79-3,.47.13m-8.39-2.34L673,413m-3.44-.85,3.42.93m-3.41-1L673,413m9.88,2.79-.51-.13m-9-2.5-.43-.12m-7-2,3.21.86m.42.11-.42-.11m0,.07.42.12m0,.06-.42-.11m-3.58-1,.39.11m11.47,3.22-3.65-1m-7.9-2.21,3.22.87m3.81,1.06.44.12m0,.08.45.12m3.67.9-3.65-1m0,0-.44-.12m4.07,1.18-3.65-1m-7.91-2.21,3.22.86m-4.08-.94.39.1m-.24-.36-.15.26m.54-.16-.39-.1m.75.27-.4-.1m18.31,4.82-1-.27m0,0v.34m0,0,1,.28m-7.39-1.7H677m-12.57-3.88-1.14-.31m20.56,5.51v.35m-1.5-.75.5.13m-1-.18.5.13m-18.06-4.62.77.21m5,1.63-.43-.23m12.23,2.92-3.87-1m-8.36-1.88,1.32.36m-7.8-2.28,1.15.31m17.49,4.49-3.86-1m5.87,1.84,1.56.42m-3.07-1-.5-.14m-4.83-1-1.45-.39m9.85,2.13-1.55-.42m-19.58-4.94.16-.26m.76.21-.76-.21m17.4,4.83-3.88-1m-19.66,1.88-.84-.28m.35,1,.87.3m-26.81-16.16,1.91.5m1.83.47,7.92,2.06m15.63,4.06,39,10.13m-74,66.23.74-1.3m18.87-21.87-.2-.16m-25.63,17.58,1.52-2.31m24.31-14-.2-.16m-4,8.19-.85-.79m1.28,1.19-.43-.4m-5.45,11.17.91,1m-15.61-2-1.48-1.92m34.79-35.21.34.2m3.81-7.08.64.33m-42.12,47.76.75,1.08m24.12-16.11.21.19m15.13-33.89,1.27.64m-91.23,47.66-.44.39m96.38-74.64-.18.25m.75.2.75.21m.17-.26.17-.26m-98,82.52-1.48-6.67m78.11-81.33.27-.18M542.94,465v1.43m145.33-20-.93-.43m.12,4,2,1m-2.73-24-1.33-.57m2.07,11.19.41.16m-.19.34-.2-.09m.81,4.1.22.1m-2.1-24.89-1.06-.29m2.48,24.38.21.1m-5.39,7.39v.3m6.09-2.65-.47-.22m-2.74,3.8v-1.19m-.17-32.3v-.35m-2.7,32.91v.69m4.07-24.16,1.32.43m-2.2-8.49.63.18m.94,17.32.39.15m-2.23-17.72.27.07m.76,7.23-.32-.1m2.23,21.1-.23-.11m-.4-16.55-.36-.12m-1.24-4.32-.86-.28m2.1,4.6-.7-.24m-27.9-13.47.84.27m-.39-.92-.81-.26M565.2,484.84l-1.49,1.35m94.58-49,.24-.55m-5.47,7.24.35.21m34.36-8.78.8.31m-.69,2.1.83.34m-68.43-57.8h-.42m-49.06,1h.41m0,0h.48m0,0h.55m0,0h.61m0,0h.68m0,0h.38m3.08,0h.71m0,0h.95m0,0h1m0,0h1m0,0h1m0,0h1m0,0h1m0,0h1m0,0h1m0,0h1m0,0h.92m0,0h.9m.48,0h-.48m-4.74-.38h.44m0,0,4.78.37"></path><path class="z" d="M584.09,380.7h.6m3.7.41-4.74-.38m46.3.94h.55m0,0h-.42m0,0-1.36-.06m0,0h.53m0,0h.67m.58,0H631m0,0h.52m0,0H632m0,0h.55m0,0h.57m0,0h.59m0,0h.6m0,0h.6m0,0h.6m0,0h.61m0,0h.61m0,0h.59m0,0h.59m0,0h.57m0,0h.55m0,0h.54m0,0h.51m0,0h.48m0,0h.46m0,0h.42m0,0h.39m0,0h.35m0,0h.32m.25,0h-.23m-7.42-.32h.26m0,0,7.39.31m-7.39-.31h.34m0,0-1.3-.05m0,0H634m0,0h.78m.08,0h.53m7.14.34-7.4-.32m19-1.6-1.63.13m1.87-.13-1.62.14m1.5-.14-1.63.13m1.5,0-.53,0m-1.77,0,3.61-.28m0,0h.23m.7,0-3.54.29m0,0h-.25m3-.31h.92m-2,.14h-.24m-.16,0h-.24m1.74-.12-1.46.11m1.58-.11-1.46.12m1.23-.13-1.47.12m-2.42.17h1m3-.32h.23m-3.58.28h-.49m.75,0h-.26m3.58-.28h.47m.51-.22h.86m-9.2.84.9-.08m9.17-.75h.24m-12.48.79h1.07m-84.19,1.24h.52m2.32-.08h1.34m84.47-2-2.46-.05m0,0,2.74.05m.1,0h-.38m-.24,0h-2.22m2.6.05h-.38m.07,0H652m-.38,0h-2.29m3.63.08,3.81.07m-4.6-.09H653m-1.38,0h-2.25m-63.31,1.45,10.88.79m1.68.13,14.25,1m8,.09-1.52.13m-3.27.28,1.68-.14m1.63-.37,1.48.1m-63.93-2h1.27M540,382l-16.25.54m5.52-2.44-9.58,2.66m4.06-.22,7.3-2.45m-11.36,2.67,20.32-.68m16-1.34-7,.19m0,0-.45-.17m-17.48-.67,8.74-.16m0,0-10.52.2m27.71.62h-1m-8-.18-1.5-.58m-.54-.21.23.09m2,.76.2.08m90.34.19-.73.06m-70,.33h-.53m78.94-1.12-7.65-.21m-17.61.34h-.84m17.72.67-16.88-.64m20.78.33,3.17-.25m-2.91.37H641m6-.36,1.57-.12m-3.48.15h.57m.83,0h-1.13m-2.84.29,3.14-.25m-3.48.35.63-.05m-1.84,0-2.22.17m.53.1.71,0m3.12-.26h-.59M640,381l2.19-.18m.63-.05h-1.2m4.88-.26H647m-3.89.32,3.12-.25m-3.42.28h.3m2.25-.31h-.27m.79-.06h-.52m-3.75.3-.64,0m6.5-.51-1.59.12m.35.1h.26m-7.74.48,1.24.05m7-.58h-1.12m-4,.31h-.31m-3.59.28h1.26m-11.62.77-8.19.65m0,.2,9.57-.78m1.06-.09-1.36-.06m.3.15-1.38-.07M652.25,380h.37M629,381.8l1.06-.09m3.92-.48-4.75.38m5.18-.41,1.3.05m.83-.06,2.7-.23M638,381l-2.73.21M698,382l-39.71-1.19m-23.15.53-4.63.38m19-1.55,2.84-.23m0,0h-1m0,0-1.82.14m2.2-.17h-.38m-1.82-1.1h2.84m6.81.1,28.32.4m-52.64,2-4.73.38m-1.33,0-1.08.08m59.73-2.41H691m-55.23,1.89.83-.06m-1.29-.06-.84.07M691,379.36l7,2.6m-45.33-2.09h-1m-16.38,1.28,1.29.06m31.74-1.74-10,1.32m-28.61,2.76,25.14-2.86m10.64-1.21h2.85m-18.85-.33,2.84.05m6.81.12,9.2.16m-2.85,0-6.39-.12m-2.58.2h.28m-.91,0h-.29m2.15-.17-1.86.14m-36.48,3.3,10.26.72m26.22-4h.91m0,0,1.82-.15m5.69.08-35.07,3.78m26.36-3.7h.92m2.34-.19,5.45.1m-35.07,3.78-8.31-.56m-36.84-2-7.1.24m-3.08.11-3.29.11m15.52-.53-1.45.05m-29.28,1.08-15.36.54m-.25-2.5,6.21-.11m-6,2.61V382m6-2.33-4.62.08m74.75,3.29-43.26,3.68m0,0-17.47-5m2.86-.24h-.95m-14.27.56,12.12-.41m2.15-.15,18.79,4.57m-34.72-6.32,1.66,2.31m33.06,4,38.54-3.14m-59.94-1.42,3.56-.11m-3.1.25-.46-.14m92.74-1.38h1.1m10.31-.85h.24m-1.35,0h.87m-39.21,3.43-1.59.14m-3.17,0,1.49.11m42.14-2.32-3.47-.1m0,0,10.64-1.21m-23,1.17h-.6m3.74-.23h.57m22.09-1,22.75.08M540,382l-.21-2.07m229.86,35.26,56.5,25.36M769.65,460v-2.6M730.71,341.63v39m38.94,76.73,21.18,20m1.79,0,16.56,15.44m-16.56-62.37v46.93m-1.79-49.46v49.46m23.78-36v2m-88.84-99.74,31.9-65.82m-32.31,66.3.28,1.11"></path><path class="z" d="M812,442.09v50.77M730.71,380.62l52,3.88m11.8,48.62,17.54,9M725.16,344l31.62-66.07M725.16,344l.12.46m.6,1,1.23-1m65.54,86,22,10.91m11.5,8-11.54-5.89m0-2,11.54,5.72M725.48,343.92l.29-.24m-.52.71.11-.23m85.93,148.7-16.81-15.41m-68.69-132.3.06.27m68.63,132v-44.3m9.22-104.36V308.43m-64.88,38.48v18.45m64.88-56.89-23.23,13.47m-41.19,42.42V347.49m12.56-11.05v2.08m49.68-27-19.59,11m0,0v13.59m0,0,19.59-8.31m0,0V311.51m-21,10.39v16.35m-30,23.47V341.36m49-26.88-16,8.77m-39.37,40-4.87,1.11m-.91,1.87V346.36m13.47-7.81v25m-.7-.89V340m-6.51,23.16,5.83-1.39m-11.18-14.23,4.79-2.63m6.39-3.5-5.83,3.2m-6.26,1.8V344.7m13.47,18.81-13.47,2.77m5.7-22.31v.92m36.4-6.61,23.23-9.49M738.37,344.7l13.47-8.23m-13.47,9.89,13.47-7.81m-7.21,6V363.1m6.51-23.16-7.07,4m-5.25,21.42,5.25-1.16M799.42,327V314.48M769.65,477.09l-38.94-46m49.76-109.16v-3m0,0,23.23-14.2m-73,75.89-.65-.05m39.59,92.57-2.2-2.5m2.2,10.4L730.7,433.19m73-128.46v3.7M783.44,334l16-7m-16-3.7V334m-56.36,10.45v39.9m3-2.42.65.07M787,492.86l-17.38-19.72M730,380.57V382m52.62,22.3,43.5,12.09m-96.09,12.56V398.78m47-8.23v.72m-57.75-2.59.65.22m1.62,29.62,2.19,2.48m6,6.84V399.36m1-16.91,52,5.92m-52.94,11-3.16-1.56m4.13-13.58v-.35M720,389l10.8-5.75m-9.38,11.44V418.9m9.38-34.67,46.3,7.09M721.42,418.9l8.73,10m-3.48-31.13v.59m-6.45-8.91v32.91m9.93-23.6-8.73-4.19m61.35-10.09v3.88m-62.68.6,10.71-5.67m-11.45,5.42,7.82-4.29m-7.82,4.29.06.53m63.36,22.23V410m-52-26.16,46.3,6.72m-55.48,4.71v23.26m12.71-17.73,9,4.33m-4.66,16.1,3.61,3m-7.59-5.47,3.53,3m4.06,2.52V406.36m-12.78,20.4v-26.9m-5.47-2.8v23.6m18.78-14.9-4.58-2.27M726.9,423.9l2.58,2.89m-5.76-30.43v.6m10.52,22.22V400.79m-4.81-.93-2.58-1.32m0,0V423.9M724,420.66l2.63,2.94m-4.83-27.67v22.26m21.51-13.07v21.75m-16.73-28.51-2.58-1.3m18.78,28.46V405.76m-21,12.43,2,2.2m19.54,6.48-9-7.71m.38-17.42v17m3.53-15.23v.85m4.06,2.07-3.61-1.84m0,0v16.67M723.8,397l-2-1m24.9,31.92V408.66m-27.28-19.44v32.14m14.87-22.14,9,4m-12.55-10.11v37.9m3.53-30.27v-1.53m-12.91-5.8,8.73,3.92m15.42,8.8L759.72,413m-13.63-5.6v20.95m-11-10V402.72m11.63,5.94,4.84,2.48m-6-6.84,14.21,6.38m-8.2,21.15-4.84-4m-3.47-24.47v1.81m8.93,6.38v20.91m-6.71-3.65V406.18M759.69,413v27.9m0,0-14.21-12.15M758,414.46l-5.79-3m6.64,2.24-7.34-3.64m.7,22.31,5.79,4.76m-23-34.45,3.13,1.6m7.91,24,5.43,4.55m7.34,6.16V413.74M758,437.17V414.46m-19.83,6.39L735,418.27m16.47-8.17v1m8.2-.46V413m-14.21-6.83v-1.88m24.17,2.57v8.29m-39.57-17.76v1.4m-8.73-4.19v-1.11m81.93,99.4L769.65,460m21.18,17.4,16.31,15.47M744.07,343.94l-5.25,3m-13.05-3.23,79.71-65.82m-38,192.78L757,458.76M730.71,341.63l81.61-63.77m-86.53,67.29,85.28-67.29m-67,86.3,7.07-1.57m-7.07.65v.92m70.54,79.26v49.44m-89.25-148.7.12-.24m57.2,40.58,43.47,3.25m-99.07-43.29,3.63-2.83m13.36,3.23v18.38m38.61,41v4.57m-63.31-19.62.76.27m6.45,8.27-2.86-1.37m7-3.14,38.94,13.67M777,408.1l5.67,1.91m-62.55-20.5,10.58,3.71m-4.13,31,3.16,3.6m52.93-39.46V404.3m-56.1,19.33v.64m43.07,52.85v3.95m0-74.17,13,4.57M826.12,423l-43.47-14.09m-52-25.69v-.74m0,1.42v-.57m46.3,8V408.1m-49.87-23.74,3.63-2m-7,38.59,2.86,3.24m0-25.84v25.2m56.1-14.76v1.15m-59,10.4V421m14.48-16.59v16.53m-7.44,10.21v2.13m7.44-11.52,4.58,3.85m-4.58-4.67v.82m31.5-3.88V460m-18.16-28.13v1m18.16,27.1v13.18m-18.16-63-5.43-2.69m-7.91-3.92-3.53-1.75m-10.9-4.8v23.41m27.77,12.47,7.34,6.16m10.82-23.86v2.63m-18.16-6.65V431.8m-26-87.91,31.88-66.06M757,458.76l-27.25-30.92m39.91,45.3v4m-38.94-94.68v-1.79M826.16,445l-35.32-17m-16.11,64.9-5.08-6.51m-39.91-58.47-1.52-1.73M720,388.93l57,19.15m-53.28-11.72-2.19-1.08m9.18,37.93v2.84m95.44,11.09-33.53-16.63m-23,55.82-38.94-50.28M790.8,428l-21.18-10.17m0,63.25v5.3m-49.49-64-.76-1M730.71,436l-10.58-13.63m-.76-1-4.55-5.88m-48.49-15-7.23-1.33m-13.83-2.54-9.72-1.8"></path><path class="z" d="M650.45,374.91h1.84m34.8,29.45-20.76-3.83m35.91,10.83-43.14-9m-13.83-3-9.72-2m-1.83-.38-1.91-.4m18.38-22.3v1m0,0h2.1m6.81-.13h2.16m0-9.25-2.16.21m12,12.85-4.1-.15m-6-4.07v-8.6m5.37-5V378.7M661,366.09l-1.86.17M661.3,375v-9.25m-9,8.84h-1.59m0,0v-.38m-.25,0v.66m8.65-.48h1.55m0,0v-8m0,0-1.55.14m0-1.21,2.16-.21m0,0v.61M661,387l-1.86-.15m1.86,6.91V387m11.21-27.54-9.08-3.05m10,2.81-8.91-3m8.91,3-.16.32m-11.64,27.2-2.16-.17m0,7.27,2.16.29m0,0v-7.39m11.47-27.25-.39.76M659.1,385.93l2.16.16m25.83-.47v18.74m3-19-.14.35m-28.69.31v.61m28.83-1.27-1.58-.09m1.44.44-2.86-.16m-16-5.3-12-.29m12,.45-12-.3M667,361.06v17.7m21.28,6.6-17.15-5.28m17.38,5.28L671.13,380m-10.48,7.27-1.55-.13m31-1.71-19-5.78m0,0-12-.22m1.55,14v-6.13m-1.55,5.92,1.55.21m7.7-5.82v7.17m7.19-6.25,3.11.26m4.52,8.37v-8.72m-14.48,6.06V388m3.16,7,2.94.4m-3.3-.45-2.8-.37m14.48-6.06L668,387.23m6.78,8.06v-6.85m-6.44,6.31,3.5.48m2.94-6.79-2.94-.24m10.89,8.51v-8m-14-.81,2.8.24m.36-.31v.34m10.89.54-4.09-.33M668,395l15.16,2.1M668,387.23V395m3.48-6.86v6.67m3.67-6.71v7.55m3.89.18,3.28.43m-3.68-7.88v.35m3.68,7.53v-7.22m0,0-3.28-.28m0,0v7.07m-.4-.06-3.11-.41m0,0V388.5m7.63-.82v.73M668,386.58l15.16,1.1M668,387.23v-.65m-1.68-7.83-7.23-.09m-6.81-.08h-2.84m17.55.21h-.67m4.8,1.57v-.27m0,0v-.35m1.45-20.33-9.12-3m2.88,4.83.67-.08m-7.9,1,7.23-.92m20.76,43.17v3.73m-20.09-47,5-.64m.09-.19h.2m-13.24,1.7,13-1.68m15,25.39-28-1.6m13.07-24.58.4,0m-13.47,1.81,13.07-1.76m16.39,25.9h-.23m-16.43,2.87v6.69m0,0v.34m0,0,3.31.45m3.49-7.27-3.49-.28m3.49.63v7m-3.49-7.67-3.31-.27m0,0-3.5-.28m10.3,8.22v.35m-7.52-16.5v-.84m17.15,6.56-29.18-1.59m16.06,11.94,3.49.47m0,0,4.09.56m-23.64-22H661m-1.86,18.8,1.86.25M489.6,419.9,539.73,409m6.51-50.28-6.19-.82m0-.91,5.43-1.12m.57,2-6-.84m-.28,22.1V409m-1.13-52.37,7-1.42m-6.5,1.75.61.9m6,21.16h-.93m-5.9-22,.26-.05m7.12,1.95-2.13-.28m0,0V379m-5.51-22.41.26.38m.26-.05.25-.05m.36,52.09.3-.07m4.08-50.3-3.92-.52m5.5,20.91H546m-6-22-.64-.08m0,0,6.13-1.26M544.75,379h-.65M540,357.89h-.32m4.38,21.18-4.38.05M500.91,492.86l24.7-73.94M494.17,360v-48.5m0,0,4.91,7.09m4.81,46.56-4.81-1.62m-5.6-54.94v53m5.6.23L494.17,360m4.91-43.07v1.66m6.5,174.24,22.73-77.39m-24-92.16v43.46m0,0L473,357.49m1.59-79.63,29.72,45.5m-29.85,31.93V280.36M525.61,380v1.35m-.26,1.25v.29M474.46,280.36l11.62,17.29M473,357.49V277.86m26.6,84.24,3.84,1.45m0,0V325m.43-.84v41.05M503.44,325l-3.84-5.56m0,0V362.1m-14.49-63.74v58.2m29-8.83-2-2.37m2.52-8.37-3-4.89m0,0v2.26m-2.88-20.78v72.88m-15.91-77-6.68-9.67m-1,56.8-9.26-3.51M486.09,357l6.68,2.54m21.62-19.76V349m0,0-2.56-2.86m0,0V335.92m-36,17.17V285m38.76,65.38-3-3.26M475.89,285l9.22,13.33m29,42.07v7.3M486,297.56v2.2m18.23,20.61-26.34-42.51m26.39,45.5v-2.9m7.24,26.64V334.36m.52,11v-7.91m-.52-3,3,4.64M511.78,336l2.56,3.82m-21.62,19.76v-50m19.31,28,2.09,3m.43-1.44v11.24m10.34-3.2v33m-2.35-13.5-1-.6m4.53-17.84-.06,1m0-.07v.21m.17-1.46v.43m-2.47,20.27V353m2.29-3.61-1.1-2.26m-3.32,4.14,1,1.39m1.12.33-2.31-3.53m1.28,2.65v.69M514.59,339V337m9,16.52V367.9m-.08-.71V354m-2.14-4.58v17.92m.11-17,1.17,1.74m0,14.57.86.54m-1-14.56v14m1-12.58-.86-1.24m1-1.12L521.34,348m0,0v1.49m.11,17.23V350.36m2.11,17.56-.94-.55m-1.28,0,2.31,1.25M521.56,366V351.25m2.09,1.72v-1.31m2.35-3.84-10.25-70m10.4,70.05-10.15-70M486,447.11v2.25"></path><path class="z" d="M504.31,421.83V456.6m-29.85,5.7,11.62-15.19m17.38-21.24-3.84,5.18m-.54,34-4.91,10.65m-19.71,17.16V462.3m25.16,1.59,3.84-8.35m.43.53-4.81,10.66m-4.91,9V438.36M473,461.45l31.29-39.62m0,34.77-16.07,36.26m-15.2,0V461.45m30.87-37.63v32.25m-4.81-25.95v1.66m4.38,23.76V425.87m-3.84,5.18v32.84m-5.45-25.53,4.91-6.61m-5.6,5.66v41.67m23.2-50.38V406.16m-23.92,72.62V440.3m23.92-34.14L513,410.77m0,0v26.16m-8.73-18L473,456m40.25-44.42,1.83-2.38m-10.79,12.65v-2.9m12.2-11.6v20.85m9.1-38.07v28.81M473,456v5.47m-15.44-52.86,67.77-25.94m-67.77,27.62,67.77-27.33M492.74,440.3l-6.68,9m.19,43.55,6.49-14.08M475.83,463.1l9.26-12.49m-27.53-48.78,51.09-15.35m16.94,3.62v-.55M475.85,492.86V463.11m9.26-12.49v42.24M513,436.93l3.64-8.2M523,413.24l.58-1.25m-7,16.19-1.41,3.12m-1.83,4V411.56m3.06-3-1.23,1.66m7-10.2L523,399m-.72,15.89V400.56m-8.77,11.8,1.4-1.87m.2-1.28v1m8.6,2.74V397.28m-8.8,13.18v20.27M523.61,398v14.42m-1.48,3.27V400m-5.45,4.3L513,408.59m1.86,22.14-1.4,3m3.18-27.59v-1.88m7-7-1.64,2.1m-5.7,28.23v-19.1m6.53-8.8v13.72m0,0-.63,1.36m-.2,1.88,1.67-3.76m-8.6,17.37,1.23-2.67m-3.29-19v2.18m10-11.86v.68m-9.45,34.16V412.36m10.11.13L523,414m-1-14.59v17.29m.2-16.12.63-.84m.84-2.44V396m0,0L522,398m0,0v1.41m1.5,12.6V398.82m0,0-.58.77m-65.34-6.23,67.35-13.26M486.08,357v2.21m13,4.39-5.6-1.9m0-53,5.6,8.34m0,0,4.81,7.17m-17.81-26.53,7.4,11m5.6,53.27v1.67M525.35,383v6.85m-26.27-71.17v43.27m-13-62.09V357m39.53,24.4v8.16m-2.94-22.16-1.17-.69m1.17,0v.7m0-15.27.94,1.4m-.94-.71v13.87m-23.59,63.46,4.81-6.3m-4.81,8v33.24M523,413.92l-.82,1.81m.82-16.14v13.65m0,0v.68M508.67,313.61l-17.35-35.75m17.35,108.63,16.94-5.13M515.1,409.18l1.41-1.85m8.42-60.22-16.26-33.5M486.08,449.36v43.5m7.4-55.42,5.6-7.32m-13,17,7.4-9.67m32.13-18.52v5.73m.43-75.53-34.25-71.27m7.29,188.87-5.6,12.38m-35.9-26.05,68-62.95M515.1,431.3l-1.83,4m1.83-5v1m7.9-32.39.66-.87m-24.53,67v1.67m27-118.91L494,277.8M515.1,410.18v20.11m-21.62-68.63-7.4-2.49m40-11.2-10.2-70.11m-22.4,201.25-6.22,13.75m-29.68-43,68-60.28m-.68-9.46.68-.14m-39.53-20.79-11.62-3.93"></path></g><path class="q" d="M800.2,341.72c1.46.47,7.71-11.79,10.58-15.78-1.7,4.2-9.12,17.44-5.8,18.13,3,.9,8.56-11.27,11-15.36-1.66,4-7.54,15.86-5.44,16.14,3.45,1.7,7.82-6.24,10.36-9.91-1.43,3.18-3.74,10.42-1.63,9.91,1.86,1.7,9.64-8.5,14-12,3.61-2.9,9-3.06,13.3-4.37h0a12.31,12.31,0,0,0,3.21-1.43l-2.49-19.35c-12.09-.74-29.92-2.17-39.24,7.93a37.44,37.44,0,0,0-2.43,2.91C798.64,327.68,794.38,340.72,800.2,341.72Z"></path><path class="r" d="M800.2,341.72c1.46.47,7.71-11.79,10.58-15.78-1.7,4.2-9.12,17.44-5.8,18.13,3,.9,8.56-11.27,11-15.36-1.66,4-7.54,15.86-5.44,16.14,3.45,1.7,7.82-6.24,10.36-9.91-1.43,3.18-3.74,10.42-1.63,9.91,1.86,1.7,9.64-8.5,14-12,3.61-2.9,9-3.06,13.3-4.37-4.19,1.1-9.1,1.56-13.13,2.17-1,.15-2.83,1-3.94.43-1.73-.83-.53-1.88-1.67-3.18-1.83-2.08-4-3.09-6.58-1.63.09-4.91-4.31-4.3-7.53-3.6-1-3.12-3.74-3.92-6.32-1.95a7.4,7.4,0,0,0-1.73-2.2C798.64,327.68,794.38,340.72,800.2,341.72Z"></path><polygon class="aa" points="449.57 310.58 792.88 310.58 787.33 304.63 440.06 304.63 449.57 310.58"></polygon><polygon class="aa" points="455.52 323.66 798.83 323.66 793.28 317.72 446 317.72 455.52 323.66"></polygon><rect class="e" x="561.38" y="286.08" width="119.41" height="7.37"></rect><path class="ab" d="M932.94,26S929.19,3.47,949.23.17,978.44,41.92,947.58,45,932.94,26,932.94,26Z"></path><path class="ac" d="M899.51,100.07s-2.31,24.76-3.82,38.8,32.89-12,32.89-12l-4.49-52Z"></path><path class="ad" d="M908.63,16.91S873-8.53,855.85,37.2c-11.11,29.65,10,71,10,71L878,64.51S897.36,52.12,908.63,16.91Z"></path><path class="ae" d="M897.42,121.9s11.57,3.24,29.18-18h0s-21.28,17.24-29,14.92Z"></path><path class="ac" d="M916.88,30.52s-50.69-19.64-53.7,31.6c-3,51.69,40.71,80.91,71,31C961.57,48,944.61,27.33,916.88,30.52Z"></path><path class="ad" d="M884.34,28.51s2.89,35.46,42.4,44c0,0,10.85-12.56,12.78-1.9s-10.91,16.09-10.91,16.09l.43,14.89s28.79-25,24.41-56.93C949.78,17.83,897.2-16.59,884.34,28.51Z"></path><path class="af" d="M880.24,66.68a74.53,74.53,0,0,1-3.63,13.93,14.06,14.06,0,0,1-2,3.87,1.59,1.59,0,0,1-.72.49l.3-.69a7.27,7.27,0,0,0,5.53,3.28,12,12,0,0,0,2.32,0,9.66,9.66,0,0,1-2.34.35,7.33,7.33,0,0,1-6.7-3.73l.66-.12c.93-.9,1.42-2.59,1.94-3.82,1.6-4.29,3.08-9.23,4.63-13.55Z"></path><path class="i" d="M863.7,72.65l1.61.55a13.82,13.82,0,0,0,9.55.14c-1.21-2.87-1.85-6.09-4.14-6.67a3.5,3.5,0,0,0-1.64,0c-2,.36-3.59,2.57-4.5,4.2A17.3,17.3,0,0,0,863.7,72.65Z"></path><path class="ag" d="M864.58,70.84a13.72,13.72,0,0,0,.73,2.36,14.78,14.78,0,0,0,6.14.87,12,12,0,0,0,0-4.85,15.17,15.17,0,0,0-.74-2.55,3.5,3.5,0,0,0-1.64,0C867.07,67,865.49,69.21,864.58,70.84Z"></path><path class="i" d="M891.9,70.9C893,71,894.05,71,895,71a27,27,0,0,0,6.86-1,52.61,52.61,0,0,0,6.19-2.25l-.35-.22c-2.64-1-4.21-2.89-6.47-3.92a8.11,8.11,0,0,0-3.91-.74c-2.17.08-3.2,1.4-3.91,3.18C892.87,67.45,892.51,69.21,891.9,70.9Z"></path><path class="ag" d="M893.63,67.2A11,11,0,0,0,895,71a27,27,0,0,0,6.86-1,10.76,10.76,0,0,0,0-4.23,11.62,11.62,0,0,0-.63-2.16,8,8,0,0,0-3.9-.74c-2.17.08-3.2,1.4-3.91,3.18A9.31,9.31,0,0,0,893.63,67.2Z"></path><path class="ah" d="M864.27,62.86a100.57,100.57,0,0,1,11-1.79v-2.8c-3.33.12-10.95,2-12.34,3C863.42,61.7,863.78,62.41,864.27,62.86Z"></path><path class="ah" d="M905.66,58.85a27.84,27.84,0,0,0-5.42-1.28,64.86,64.86,0,0,0-14.71-.52l1.54,3.26a91.22,91.22,0,0,1,18,.29C905.25,60,905.45,59.44,905.66,58.85Z"></path><path class="r" d="M882.49,97.21c2.84,3.25,9.79,7.38,15.78,5.41,5.8-1.78,9.48-7.3,9.52-11.63h-.63c-1,.43-18.92,5-22.41,5.82A17.54,17.54,0,0,1,882.49,97.21Z"></path><path class="i" d="M884.75,96.85c.91,1.41,2,2.71,2.3,3.32,4.59-.32,15.81-6.53,17.26-8.3C900.41,92.48,888.24,96.05,884.75,96.85Z"></path><ellipse class="i" cx="866.88" cy="71.73" rx="0.62" ry="1.14" transform="translate(5.58 193.34) rotate(-12.77)"></ellipse><ellipse class="i" cx="895.77" cy="68.59" rx="0.72" ry="1.33" transform="matrix(0.98, -0.19, 0.19, 0.98, 3.26, 171.22)"></ellipse><path d="M863.7,72.65a12,12,0,0,1,2.06-4.06c2.09-2.83,6.11-3,7.73.41a12.93,12.93,0,0,1,1.37,4.34,17.12,17.12,0,0,0-1.71-4.14c-1.57-3-5.06-2.88-7.11-.37a14.74,14.74,0,0,0-2.34,3.82Z"></path><path d="M908.09,67.72l-5-2.74c-.84-.48-1.58-1.07-2.4-1.47a6,6,0,0,0-5.25.11c-1.67.83-2.21,2.9-2.78,4.56-.29.9-.52,1.81-.79,2.72.75-3.94,1.19-8.24,6.18-8.44,2-.19,3.7,1.14,5.24,2.18s3.22,2,4.77,3.08Z"></path></svg>