<svg xmlns="http://www.w3.org/2000/svg" viewBox="0 0 284.39 81.27"><defs><style>.a{fill:#007858;}</style></defs><path class="a" d="M158,36.58H142.3A1.24,1.24,0,0,0,141,38v5.1a1.24,1.24,0,0,0,1.3,1.4h8.4v10a15.51,15.51,0,0,1-8.8,2.6c-6.3,0-10-3.41-10-9V33.28c0-5.8,3.5-9.1,9.5-9.1a21.22,21.22,0,0,1,11.4,3.1,1.23,1.23,0,0,0,1.8-.4l3.3-4.6a1.93,1.93,0,0,0,.3-1c0-.3-.2-.6-.7-.9a31.32,31.32,0,0,0-16-4.5c-8.5,0-18.3,4.5-18.3,17.2v15c0,12.8,10.1,17.29,18.8,17.29a23.14,23.14,0,0,0,17-7,1.64,1.64,0,0,0,.5-1.29V37.87a1.37,1.37,0,0,0-1.5-1.29"></path><path class="a" d="M284.3,63l-15.8-45.2c-.3-.7-.7-1.1-1.4-1.1h-7.5a1.39,1.39,0,0,0-1.4,1.1l-15.8,45.3a1.57,1.57,0,0,0,.1,1.2,1.16,1.16,0,0,0,1,.4H250a1.59,1.59,0,0,0,1.5-1.1l3.1-9.7h17.5l3.1,9.7a1.43,1.43,0,0,0,1.5,1.1h6.5c.6,0,.9-.2,1-.4a1.78,1.78,0,0,0,.1-1.3m-14.8-17.1H257l6.2-19.2,6.3,19.2Z"></path><path class="a" d="M112.3,16.67h-6.1a1.24,1.24,0,0,0-1.3,1.4V63.28a1.24,1.24,0,0,0,1.3,1.4h6.1a1.24,1.24,0,0,0,1.3-1.4V18.08a1.24,1.24,0,0,0-1.3-1.41"></path><path class="a" d="M198.3,56.58H177.5v-12h18.2a1.27,1.27,0,0,0,1.4-1.41v-5.3a1.27,1.27,0,0,0-1.4-1.4H177.6V24.67h19.8a1.24,1.24,0,0,0,1.4-1.3V18.08a1.27,1.27,0,0,0-1.4-1.4H170.1a1.24,1.24,0,0,0-1.3,1.4v45.2a1.24,1.24,0,0,0,1.3,1.4h28.2a1.27,1.27,0,0,0,1.4-1.4V57.87a1.24,1.24,0,0,0-1.4-1.29"></path><path class="a" d="M226.3,16.67H209.7a1.24,1.24,0,0,0-1.3,1.4V63.28a1.24,1.24,0,0,0,1.3,1.4h6.1a1.24,1.24,0,0,0,1.3-1.4V49.67h9.3c10.6,0,16.9-6.2,16.9-16.6s-6.3-16.4-17-16.4m-9.3,8.2h8.4c6.2,0,9,2.61,9,8.3s-2.8,8.4-9,8.4H217V24.87Z"></path><path class="a" d="M52.3,79.07a20.32,20.32,0,0,0,5.8-3.5,17.24,17.24,0,0,0,3.9-5.5,17.6,17.6,0,0,0,1.8-6.2,18.82,18.82,0,0,0-1-8.09,28.61,28.61,0,0,0-3.2-5.91l-.5-.59H36.6c3.6,5,4.5,6.7,5.9,10.5a17.58,17.58,0,0,1,1,7.3c-.1.6-.2,1.4-.3,2.1v.1h-.1l-14.9.8a12.39,12.39,0,0,0,.4,5.9h0a5.44,5.44,0,0,0,2.3,3,15.16,15.16,0,0,0,2.3,1.1h0a28.72,28.72,0,0,0,19.1-1m-20.3-2a3.26,3.26,0,0,1-1.3-1.7,9.18,9.18,0,0,1-.4-2.9v-.19h0l12-.7-.1.3a9.92,9.92,0,0,1-4.8,5.4c-.1.1-.2.1-.4.2a5.51,5.51,0,0,1-5-.41M40,79h-.5s5.9-3.1,6.8-11.6a18.86,18.86,0,0,0-1.1-8.29,27.88,27.88,0,0,0-3.6-7.21H57.7a24.17,24.17,0,0,1,2.6,5c3.4,9.91-3.6,16.7-3.9,17a15.91,15.91,0,0,1-5.1,3.31A29.81,29.81,0,0,1,40,79"></path><path class="a" d="M82.5,41.17a18.18,18.18,0,0,0-1.6-6.59,16.73,16.73,0,0,0-4-5.41,18.29,18.29,0,0,0-13.4-5.1,27.12,27.12,0,0,0-6.6,1.2l-.8.3L49.1,47c5.9-1.9,7.7-2.2,11.8-2.3A16.27,16.27,0,0,1,68.1,46,11.76,11.76,0,0,1,70,47l.1.1v.1l-3.8,14.4a13.88,13.88,0,0,0,5.7,1.5h0a5.2,5.2,0,0,0,3.5-1.3,13,13,0,0,0,1.7-1.9h0a28.14,28.14,0,0,0,5.3-18.7m-8.1,18.7a2.72,2.72,0,0,1-2,.7,7.74,7.74,0,0,1-2.8-.5l-.1-.1h0l3-11.7.2.2a10,10,0,0,1,3.6,6.3v.4a6.11,6.11,0,0,1-1.9,4.7m4.2-7-.2.5s-1.2-6.5-9-10.09a18.2,18.2,0,0,0-8.2-1.5,31.41,31.41,0,0,0-8,1.09l5-15.29h.1a22.52,22.52,0,0,1,5.6-.9c10.5-.2,14.7,8.6,14.9,9a14.62,14.62,0,0,1,1.5,5.9,28.49,28.49,0,0,1-1.7,11.29"></path><path class="a" d="M55.8.68A20.22,20.22,0,0,0,49,.08a18.61,18.61,0,0,0-6.4,2.1,16.78,16.78,0,0,0-5.1,4,18.28,18.28,0,0,0-3.9,7.09,27,27,0,0,0-.9,6.6v.8l18.2,13.2c0-6.2.3-8.1,1.4-12a16.89,16.89,0,0,1,3.5-6.5l1.5-1.5.1-.1.1.1L70,22a12.33,12.33,0,0,0,3.2-5h0a5.48,5.48,0,0,0-.1-3.8A13.54,13.54,0,0,0,71.9,11h0A30.57,30.57,0,0,0,55.8.68M71,14.17a3,3,0,0,1,.1,2.1,9.36,9.36,0,0,1-1.4,2.6l-.1.11h0l-10.2-6.5.3-.21a10.39,10.39,0,0,1,7.1-1.5.6.6,0,0,1,.4.1,6.28,6.28,0,0,1,3.8,3.3m-5.3-6.1.4.3s-6.6-.89-12.4,5.4a18.37,18.37,0,0,0-4,7.31A30,30,0,0,0,48.3,29l-13-9.4v-.1a24.29,24.29,0,0,1,.9-5.6A16.27,16.27,0,0,1,49.4,2.48a14,14,0,0,1,6,.4A27.11,27.11,0,0,1,65.7,8.07"></path><path class="a" d="M9,13.58a18.23,18.23,0,0,0-2.6,6.29,21.12,21.12,0,0,0,0,6.71,18.44,18.44,0,0,0,2.2,6.09,17.59,17.59,0,0,0,5.6,5.91,30.41,30.41,0,0,0,6,2.9l.8.2,18.2-13.2c-5.9-1.9-7.6-2.7-10.9-5.1a17,17,0,0,1-5.1-5.3,17.32,17.32,0,0,1-1-1.9l-.1-.1.1-.1,11.6-9.4a12.27,12.27,0,0,0-3.7-4.5h0a4.88,4.88,0,0,0-3.6-1,12.16,12.16,0,0,0-2.5.5h0a29.24,29.24,0,0,0-15,12M26.6,3.27a2.9,2.9,0,0,1,2.1.6A8.9,8.9,0,0,1,30.7,6l.1.1h0l-9.4,7.79-.1-.29a10.21,10.21,0,0,1,.7-7.2c.1-.1.1-.2.2-.3a6,6,0,0,1,4.4-2.81M19.1,6.48l.4-.3s-2.9,6,1.3,13.4a19.48,19.48,0,0,0,5.7,6.1,27.82,27.82,0,0,0,7.1,3.8L20.7,38.87h-.1a18.43,18.43,0,0,1-5-2.59,16.37,16.37,0,0,1-6.8-16,15.17,15.17,0,0,1,2.2-5.6,27.37,27.37,0,0,1,8.1-8.2"></path><path class="a" d="M6.9,62.07a18.47,18.47,0,0,0,5.1,4.4,17.49,17.49,0,0,0,6.4,2,20.19,20.19,0,0,0,6.5-.19,18.63,18.63,0,0,0,7.4-3.5,27.2,27.2,0,0,0,4.6-4.91l.5-.7-7-21.39c-3.7,5-4.9,6.4-8.2,8.8a15.62,15.62,0,0,1-6.6,3.2,14.54,14.54,0,0,1-2.1.3h-.1l-.1-.1L7.9,36.08a12.61,12.61,0,0,0-5.5,2.2h0a5,5,0,0,0-2.1,3.1,13.81,13.81,0,0,0-.3,2.5H0A29.33,29.33,0,0,0,6.9,62.07M2.5,42.17a3.6,3.6,0,0,1,1.2-1.8,8.16,8.16,0,0,1,2.6-1.2h.2l4.4,11.2h-.3A9.66,9.66,0,0,1,4,47.47l-.3-.3a6.21,6.21,0,0,1-1.2-5m.7,8.11-.1-.5s4.8,4.59,13.2,2.9a18.23,18.23,0,0,0,7.6-3.6,31.68,31.68,0,0,0,5.8-5.6l5,15.3-.2.09a21.32,21.32,0,0,1-4,4c-8.3,6.31-17,1.7-17.4,1.5a14.87,14.87,0,0,1-4.7-3.9A28.16,28.16,0,0,1,3.2,50.28"></path></svg>