<svg xmlns="http://www.w3.org/2000/svg" viewBox="0 0 595.28 595.28"><defs><style>.a{fill:#015294;fill-rule:evenodd;}</style></defs><path class="a" d="M297.64,0C462,0,595.28,133.26,595.28,297.64S462,595.28,297.64,595.28c-5.51,0-11-.17-16.42-.46L343.82,419h65.09c18.9,0,38.79-15.47,44.2-34.37l54.95-154.35c11.16-31.34-9.71-49.83-33.67-49.89l-107.23,0L222.8,585.78C94.65,552.59,0,436.17,0,297.64,0,156.2,98.65,37.81,230.9,7.52L87.81,409.4h61.63l69.31-194.66h35.41L185,409h61.64l63.63-178.71c11.15-31.34-9.72-49.83-33.67-49.89L231,180.26,295.2,0c.81,0,1.62,0,2.44,0Z"></path><path class="a" d="M356.06,384.63l60.49-169.89H452L391.47,384.63Z"></path></svg>