<svg xmlns="http://www.w3.org/2000/svg" viewBox="0 0 119.16 86.33"><defs><style>.a{fill:#e2001a;}.b{fill:#fff;}</style></defs><path class="a" d="M119.16,76.72V9.6s0-9.6-9.6-9.6H9.6S0,0,0,9.6V76.72s0,9.61,9.6,9.61h100s9.61,0,9.61-9.61Z"></path><path class="b" d="M88.08,45.49A8.92,8.92,0,0,1,88,44.25h16.3V41.93H88a7.19,7.19,0,0,1,.14-1.23c.07-.22.13-1,.69-1.21s7.1-.14,15.47-.14V36.52H88.59a5.3,5.3,0,0,0-3.5,1.24c-.59.64-1.34,1.43-1.34,5.32s.75,4.69,1.34,5.33a5.28,5.28,0,0,0,3.5,1.24h15.66V46.84c-8.36,0-14.93.09-15.47-.15S88.16,45.71,88.08,45.49ZM77.39,32.94l10.53-6.11-3.27-4.9L72.39,31.75l.93,1.19Zm-7.23-3.82L80,17.19l-5-3.41L67.33,27.37Zm-5.87-2.91,4.61-15L62.75,10,61,25.5ZM62.74,36.67H58.45S60.24,46.49,61,47.82a3.51,3.51,0,0,0,3.4,1.94c1.91,0,2.65-.38,3.52-1.56s2.56-6.86,2.56-6.88S72.13,47,73,48.2s1.6,1.56,3.51,1.56a3.53,3.53,0,0,0,3.41-1.94c.73-1.33,2.52-11.15,2.52-11.15h-4.3s-1.6,8.43-1.86,8.43S74,39,73.38,38a3.66,3.66,0,0,0-5.86,0c-.66,1-2.67,7.08-2.92,7.08S62.74,36.67,62.74,36.67Zm-8.16-10.5,3.33-.7L56.13,10,50,11.21Zm-3,1.17L43.9,13.74l-5,3.42,9.8,11.93Zm-5.07,4.37L34.23,21.89,31,26.79,41.49,32.9h4.07Zm-15.3,4.82c-.34,0-16.26,0-16.26,0V49.66h4.69V39.83H29c.47,0,.93.6.93,1.28s-.59,1.62-1,1.61H22.25V45L29,49.66h7.71l-7.54-4.72s3.4.07,4.84-1.47a4.18,4.18,0,0,0,.9-3.16,3.77,3.77,0,0,0-3.75-3.78ZM41.35,53.42,30.82,59.53l3.27,4.91,12.25-9.83-.92-1.19Zm7.23,3.82-9.8,11.93,5,3.41L51.41,59ZM53,49.66a3.83,3.83,0,0,0,3.82-3.81V40.34A3.83,3.83,0,0,0,53,36.52H41.18a3.83,3.83,0,0,0-3.82,3.82v5.51a3.83,3.83,0,0,0,3.82,3.81ZM42.54,40h9.13c.48,0,.9.21.9.73v4.65c0,.52-.42.72-.9.72H42.54c-.49,0-.91-.2-.91-.72V40.77C41.63,40.25,42.05,40,42.54,40Zm11.9,20.12-4.61,15L56,76.35l1.78-15.49Zm9.72,0-3.33.7,1.78,15.49,6.15-1.22Zm3-1.17,7.64,13.6,5-3.41L70,57.2Zm5.06-4.37L84.51,64.4l3.27-4.9L77.25,53.39H73.18l-.93,1.19Z"></path></svg>