<svg xmlns="http://www.w3.org/2000/svg" viewBox="0 0 141.31 59.53"><defs><style>.a{fill:#3f3f42;}.a,.aa,.ab,.ac,.ad,.ae,.af,.ag,.ah,.ai,.b,.c,.d,.e,.f,.g,.h,.i,.j,.k,.l,.m,.n,.o,.p,.q,.r,.s,.t,.u,.v,.w,.x,.y,.z{fill-rule:evenodd;}.b{fill:#dc0032;}.c{fill:#db0032;}.d{fill:#da0032;}.e{fill:#d90032;}.f{fill:#d80032;}.g{fill:#d70032;}.h{fill:#d60032;}.i{fill:#d50032;}.j{fill:#d40032;}.k{fill:#d30032;}.l{fill:#d20032;}.m{fill:#d10032;}.n{fill:#d00032;}.o{fill:#cf0032;}.p{fill:#ce0032;}.q{fill:#cd0032;}.r{fill:#cc0032;}.s{fill:#cb0032;}.t{fill:#ca0032;}.u{fill:#c90032;}.v{fill:#c80033;}.w{fill:#c70033;}.x{fill:#c60033;}.y{fill:#c50033;}.z{fill:#c40033;}.aa{fill:#c30033;}.ab{fill:#c20033;}.ac{fill:#c10033;}.ad{fill:#c00033;}.ae{fill:#bf0033;}.af{fill:#be0033;}.ag{fill:#bd0033;}.ah{fill:#bc0033;}.ai{fill:#b03;}</style></defs><path class="a" d="M92.7,47.76a35.78,35.78,0,0,1-9,1c-7.62,0-12.63-4-12.63-11.22,0-6.89,4.7-11.34,11.53-11.34a10.35,10.35,0,0,1,4.15.67v-10H92.7ZM86.79,32a8.9,8.9,0,0,0-3.66-.67c-3.6,0-6,2.2-6,6,0,4.08,2.56,6.4,6.77,6.4a12.64,12.64,0,0,0,2.87-.24Zm54.52,15.74a36,36,0,0,1-9,1c-7.56,0-12.63-4-12.63-11.22,0-6.89,4.7-11.34,11.53-11.34a10.19,10.19,0,0,1,4.15.67v-10h6Zm-6-15.74a8.6,8.6,0,0,0-3.6-.67c-3.66,0-6,2.2-6,6,0,4.08,2.62,6.4,6.83,6.4a12.15,12.15,0,0,0,2.81-.24ZM102,32a9.45,9.45,0,0,1,3.53-.55c3.66,0,6.16,2.08,6.16,5.79,0,4.4-2.8,6.41-6.52,6.47v5.06h.3c7.69,0,12.26-4.2,12.26-11.71,0-6.83-4.88-10.85-12.07-10.85a26.76,26.76,0,0,0-9.64,1.83V57h6Z"></path><path class="b" d="M50.74,12.93h0Zm-1.46-.79,1,1.1.54-.31Z"></path><path class="b" d="M47.82,11.35l1.89,2.19.67-.36-.73-.86Z"></path><path class="b" d="M46.29,10.55l2.87,3.3.67-.37-1.65-2Z"></path><path class="b" d="M44.83,9.76l3.78,4.39.67-.37-2.62-3Zm7.26,7.75-.43.24.42.49v-.73Z"></path><path class="b" d="M43.37,9l4.69,5.48.67-.36L45.19,9.94Zm8.47,8.66-.67.42.91,1.1V18Z"></path><path class="b" d="M41.84,8.17l5.67,6.59.73-.37L43.73,9.15Zm9.45,9.76-.67.43,1.46,1.71V18.91Z"></path><path class="b" d="M40.37,7.38,47,15.07l.67-.37L42.2,8.36ZM50.74,18.3l-.67.36,2,2.38V19.88Z"></path><path class="b" d="M38.91,6.59l7.56,8.78.68-.36L40.74,7.57Zm11.28,12-.67.37,2.57,3V20.8Z"></path><path class="b" d="M37.39,5.79l8.53,9.89.68-.37L39.28,6.77ZM49.65,18.91l-.67.37,3.11,3.59V21.71Z"></path><path class="b" d="M35.92,5l9.45,11,.68-.42L37.75,6ZM49.1,19.21l-.67.37,3.65,4.27V22.69Z"></path><path class="b" d="M34.4,4.21,44.83,16.35l.67-.43L36.29,5.19ZM48.61,19.52l-.73.36,4.2,4.88V23.6Z"></path><path class="b" d="M32.93,3.42,44.28,16.65l.73-.43L34.83,4.39Zm15.13,16.4-.67.37,4.69,5.55V24.52Z"></path><path class="b" d="M31.47,2.62,43.79,17l.67-.43L33.3,3.6Zm16,17.51-.67.36,5.24,6.16V25.5Z"></path><path class="b" d="M30,1.77,43.24,17.26l.67-.43-12.07-14ZM47,20.43l-.67.37,5.79,6.77V26.41Z"></path><path class="b" d="M28.48,1,42.69,17.57l.67-.37L30.37,2ZM46.41,20.74l-.67.37,6.34,7.43V27.33Z"></path><path class="b" d="M27,.25,42.15,17.87l.67-.36-14-16.29ZM45.86,21l-.67.37,6.89,8.05V28.3Z"></path><path class="b" d="M26,0,41.6,18.18l.66-.37L27.39.43,27,.25A1.79,1.79,0,0,0,26,0ZM45.32,21.35l-.68.36,7.44,8.66V29.22Z"></path><path class="b" d="M26,0a3.09,3.09,0,0,0-.73.12L41.05,18.48l.73-.37L26.23,0ZM44.83,21.65l-.67.37,7.92,9.33V30.13Z"></path><path class="b" d="M25.49.06a1.49,1.49,0,0,0-.36.19l-.37.18,15.8,18.36.67-.37L25.49.06ZM44.28,22l-.67.42,8.47,9.89V31.11Z"></path><path class="b" d="M24.88.31l-.67.36L40,19.09l.67-.37Zm18.85,22-.67.43,9,10.49V32Z"></path><path class="b" d="M24.33.61,23.67,1,39.46,19.4l.67-.37Zm18.85,22-.67.43,9.57,11.16V33Z"></path><path class="b" d="M23.79.91l-.68.37L38.91,19.7l.67-.36Zm18.84,22L42,23.3,52.08,35.07V33.91Z"></path><path class="b" d="M23.24,1.22l-.67.37L38.36,20l.67-.37Zm18.84,22-.67.42L52.08,36V34.83Z"></path><path class="b" d="M22.69,1.53,22,1.89l15.8,18.42.67-.37Zm18.91,22-.67.42L52.08,37V35.8Z"></path><path class="b" d="M22.14,1.77l-.67.43L37.33,20.62l.67-.37ZM41.05,23.85l-.68.36L52.08,37.87V36.72Z"></path><path class="b" d="M21.59,2.08l-.67.36L36.78,20.92l.67-.37ZM40.5,24.15l-.67.37L52.08,38.85V37.63Z"></path><path class="b" d="M21,2.38l-.67.36L36.23,21.29l.67-.43ZM40,24.46l-.67.36,12.8,15V38.61Z"></path><path class="b" d="M20.49,2.68l-.67.37L35.68,21.59l.67-.42ZM39.4,24.76l-.67.37L52.08,40.68V39.52Z"></path><path class="b" d="M19.94,3l-.67.37L35.13,21.9l.67-.43ZM38.85,25.07l-.67.37,13.9,16.22V40.44Z"></path><path class="b" d="M19.39,3.29l-.67.37L34.58,22.2l.67-.43Zm19,22.08-.67.37L52.08,42.57V41.41Z"></path><path class="b" d="M18.84,3.54l-.73.37,16,18.6.67-.43Zm19,22.14-.67.36L52.08,43.49V42.33Z"></path><path class="b" d="M18.3,3.84l-.73.37,16,18.66a.43.43,0,0,1,.24-.24l.36-.25ZM37.27,26l-.68.37L52,44.28a1.69,1.69,0,0,0,.12-.55v-.49Z"></path><path class="b" d="M17.75,4.15,17,4.51,33.42,23.6v-.24a1.32,1.32,0,0,1,.25-.61Zm19,22.14-.49.3c-.06,0-.12.06-.19.06L51.66,44.89a2,2,0,0,0,.36-.73Z"></path><path class="b" d="M17.2,4.45l-.73.37,17,19.76V23.36ZM35,26.35l16.22,19a5.7,5.7,0,0,0,.55-.55L36.17,26.59a1,1,0,0,1-.86,0Z"></path><path class="b" d="M16.65,4.76l-.73.36,34.76,40.5.49-.24.19-.19-16-18.6h-.07l-1.4-.85c-.12-.06-.18-.18-.3-.31a3.35,3.35,0,0,1-.19-.42v-.67Z"></path><path class="b" d="M16.1,5.06l-.73.37,34.76,40.5.68-.37Z"></path><path class="b" d="M15.55,5.31l-.73.36L49.65,46.23l.67-.36Z"></path><path class="b" d="M15,5.61,14.27,6,49.1,46.54l.67-.37Z"></path><path class="b" d="M14.45,5.92l-.73.36L48.55,46.84l.67-.36Z"></path><path class="b" d="M13.85,6.22l-.68.37L48,47.21l.67-.43Z"></path><path class="b" d="M13.29,6.53l-.67.36L47.45,47.51l.67-.42Z"></path><path class="b" d="M12.75,6.83l-.67.37L47,47.82l.67-.43Z"></path><path class="b" d="M12.2,7.08l-.67.36L46.41,48.12l.68-.43Z"></path><path class="b" d="M11.65,7.38,11,7.75,45.86,48.43l.68-.37Z"></path><path class="b" d="M11.1,7.69l-.67.36,17,19.76.54.37a.89.89,0,0,1,.49.73V29l16.9,19.76.67-.36Z"></path><path class="b" d="M10.55,8l-.67.37L25.8,27l2,1.1ZM28.36,28.73c0,.06.06.12.06.18v1L44.77,49l.67-.37Z"></path><path class="b" d="M10,8.3l-.67.36L24.21,26l2,1.1ZM28.42,29.71v1.15L44.28,49.34,45,49Z"></path><path class="b" d="M9.45,8.6,8.78,9,22.69,25.13l1.95,1.1Zm19,22v1.22L43.73,49.65l.67-.37Z"></path><path class="b" d="M8.9,8.85l-.67.36,12.87,15,1.95,1.16ZM28.42,31.59v1.16L43.18,50l.67-.36Z"></path><path class="b" d="M8.36,9.15l-.68.37L19.52,23.3l1.95,1.16ZM28.42,32.51v1.16L42.63,50.26l.67-.37Z"></path><path class="b" d="M7.81,9.45l-.68.37,10.8,12.62,1.95,1.1Zm20.61,24v1.21l13.66,16,.67-.42Z"></path><path class="b" d="M7.26,9.76l-.67.37,9.76,11.4,1.95,1.1ZM28.42,34.4v1.16L41.6,50.93l.66-.43Z"></path><path class="b" d="M6.71,10.06,6,10.43l8.72,10.19,2,1.09ZM28.42,35.31v1.16L41.05,51.23l.67-.42Z"></path><path class="c" d="M6.16,10.37l-.67.36,7.68,9,2,1.16Zm16,19.76L23.72,32v-.67a.53.53,0,0,0-.24-.37Zm6.28,6.1v1.22L40.5,51.54l.67-.43Z"></path><path class="b" d="M5.61,10.61,4.94,11l6.65,7.81,2,1.15ZM20.55,29.22l3.17,3.66V31.72l-1.15-1.35Zm7.87,8v1.15L40,51.84l.67-.36Z"></path><path class="b" d="M5.06,10.92l-.67.37,5.67,6.64L12,19ZM19,28.36l4.75,5.49V32.69L21,29.46Zm9.45,9.76v1.16l11,12.87.67-.37Z"></path><path class="b" d="M4.51,11.22l-.67.37L8.48,17l1.95,1.09ZM17.44,27.45l6.29,7.32V33.61l-4.34-5.07Zm11,11.65v1.16L38.91,52.45l.67-.36Z"></path><path class="b" d="M4,11.53l-.67.36,3.6,4.21,2,1.1Zm11.9,15,7.86,9.15V34.52l-5.91-6.83ZM28.42,40v1.16l9.94,11.59.67-.37Z"></path><path class="b" d="M3.41,11.83l-.67.37,2.57,3,2,1.16ZM14.27,25.62l9.45,11V35.5l-7.5-8.72ZM28.42,40.93v1.15l9.39,11,.67-.36Z"></path><path class="b" d="M2.87,12.14l-.67.36,1.52,1.77,2,1.16Zm9.82,12.62,11,12.81V36.41L14.64,25.86ZM28.42,41.9v1.16l8.85,10.31.67-.37Z"></path><path class="b" d="M2.32,12.38l-.74.37.55.67,2,1.1ZM11.1,23.85l12.63,14.7V37.33L13.11,25Zm17.32,19V44l8.3,9.76.67-.42Z"></path><path class="b" d="M1.77,12.69l-.43.24,1.22.67ZM9.51,22.93,23.73,39.46V38.3L11.53,24.09Zm18.91,20.8V45L36.23,54l.67-.43Z"></path><path class="b" d="M8,22,23.72,40.38V39.22l-13.78-16ZM28.42,44.71v1.16l7.26,8.47.67-.42Z"></path><path class="b" d="M6.4,21.17,23.73,41.35V40.13L8.36,22.26Zm22,24.45v1.16l6.71,7.87.67-.43Z"></path><path class="b" d="M4.82,20.25l18.91,22V41.11l-17-19.76Zm23.6,26.29v1.22L34.58,55l.67-.36Z"></path><path class="c" d="M3.23,19.34l20.5,23.84V42L5.18,20.49ZM28.42,47.51v1.16L34,55.26l.67-.37Z"></path><path class="d" d="M1.65,18.42,23.73,44.16V43L3.6,19.58Zm26.77,30v1.16l5.13,6,.66-.36Z"></path><path class="e" d="M.06,17.57l23.67,27.5V43.91L2.07,18.66l-2-1.09ZM28.42,49.34v1.22L33,55.87l.67-.37Z"></path><path class="f" d="M0,17.51v.85L23.73,46V44.83L.49,17.75ZM28.42,50.32v.73a.42.42,0,0,1-.12.3l4.15,4.82.67-.36-4.7-5.49Z"></path><path class="g" d="M0,18.11v1.23L23.73,47V45.8ZM28.36,51.23a.78.78,0,0,1-.43.55l-.06.06,4,4.64.67-.37-4.21-4.88Z"></path><path class="h" d="M0,19.09v1.16L23.73,47.88V46.72ZM28,51.72c0,.06,0,.06,0,.06l-.62.37,4,4.64.67-.37Z"></path><path class="i" d="M0,20v1.16L23.73,48.79V47.63ZM27.51,52l-.74.42,4.09,4.7.67-.43Z"></path><path class="j" d="M0,21v1.16L23.73,49.77V48.61ZM27,52.33l-.43.25a.92.92,0,0,1-.37.05l4.15,4.82L31,57Z"></path><path class="k" d="M0,21.9v1.15L23.73,50.68V49.52ZM25.07,52.33l4.7,5.43.66-.43-4.08-4.7c-.06,0-.19.06-.25.06h-.05a1,1,0,0,1-.44-.12l-.54-.24Z"></path><path class="l" d="M0,22.81V24l29.21,34,.68-.42-4.4-5.13-1.34-.73a.84.84,0,0,1-.42-.73v-.61Z"></path><path class="m" d="M0,23.79V25L28.66,58.37l.68-.37Z"></path><path class="n" d="M0,24.7v1.16L28.12,58.67l.67-.36Z"></path><path class="o" d="M0,25.62v1.22L27.63,59l.67-.37Z"></path><path class="p" d="M0,26.59v1.16L27.08,59.28l.67-.36Z"></path><path class="q" d="M0,27.51v1.16L26.47,59.53l.55-.19.18-.12Z"></path><path class="r" d="M0,28.42v1.22L25.68,59.53H26a1.69,1.69,0,0,0,.55-.06Z"></path><path class="s" d="M0,29.4v1.16l24.27,28.3.86.48a1.37,1.37,0,0,0,.73.19Z"></path><path class="t" d="M0,30.31v1.16L22.69,57.94l2,1.16Z"></path><path class="u" d="M0,31.29v1.16L21.1,57l2,1.16Z"></path><path class="v" d="M0,32.2v1.16L19.52,56.11l1.95,1.16Z"></path><path class="w" d="M0,33.12v1.16L17.93,55.2l1.95,1.16Z"></path><path class="x" d="M0,34.09v1.16l16.28,19,2,1.16Z"></path><path class="y" d="M0,35v1.16L14.7,53.31l2,1.16Z"></path><path class="z" d="M0,35.92v1.16L13.11,52.39l2,1.16Z"></path><path class="aa" d="M0,36.9v1.16L11.53,51.48l2,1.16Z"></path><path class="ab" d="M0,37.81V39L9.94,50.56l2,1.16Z"></path><path class="ac" d="M0,38.73V40l8.36,9.7,2,1.16Z"></path><path class="ad" d="M0,39.71v1.16l6.71,7.86,2,1.16Z"></path><path class="ae" d="M0,40.62v1.16l5.12,6,2,1.09Z"></path><path class="af" d="M0,41.53v1.23l3.54,4.08,2,1.16Z"></path><path class="ag" d="M0,42.51v1.16l2,2.26,2,1.16Z"></path><path class="ah" d="M0,43.42v.31a2.2,2.2,0,0,0,.91,1.65l1.47.79L0,43.43Z"></path><path class="ai" d="M.37,44.83c.12.12.18.24.3.3Z"></path></svg>