<svg xmlns="http://www.w3.org/2000/svg" viewBox="0 0 213.3 75.14"><defs><style>.a{fill:#f60;}.b{fill:#355586;}</style></defs><path class="a" d="M127,34.38a38.2,38.2,0,0,1,15.61-6c5.61-1.18,11.67-.56,16.53,2.65l-.09.29c-8.11,0-16.19-1.56-24.17.66a39,39,0,0,0-7.72,2.68l-.16-.25Z"></path><path class="a" d="M69.25,21.67c4.59.5,9.31,1.67,13.83,2.53.19,0,.15.34,0,.31-3.37-.37-7.1-.86-10.48-1.32a22.83,22.83,0,0,1-3.46-.62.45.45,0,0,1-.31-.56.47.47,0,0,1,.46-.34Z"></path><path class="b" d="M38.19,33.19c-7.31,1.39-14.28.94-21-2.23l16.54-3.34,0-.23L11.1,29.87l0,.39C18.87,35,27.28,35.61,36.15,34L28,37.66l-8.52,3.87c3.76,3,7.84,2.7,12,2a18.2,18.2,0,0,1-8.06-1.72Z"></path><path class="b" d="M23.75,16,.39,9.33,0,9.6a36.67,36.67,0,0,0,2.36,4.48C5.52,18.5,10,21.22,14.94,23.22a59.71,59.71,0,0,0,16,3.64,4.8,4.8,0,0,0,1.07,0C21.06,24.9,10.5,22.32,3.54,12.64l.15-.42,20,4Z"></path><path class="b" d="M38.65,13.19,10.06,0C9.59,5.56,17.43,14.13,23.8,15.49c-2-1.55-4.33-3.14-6.45-5a16.57,16.57,0,0,1-4.86-7.28L38.54,13.46Z"></path><path class="b" d="M29.55,2.23A34.49,34.49,0,0,0,41.9,14.81Z"></path><path class="b" d="M132.42,25.88c-6.16,5-16,7.28-24.06,5.52-6-1.24-9.61-5.33-15.43-6.53a30.07,30.07,0,0,0-5.86-.49.15.15,0,0,1-.06-.3,17.71,17.71,0,0,1,12.83-.14c4,1.45,6.58,3.76,9.89,4.87,6.83,2,16.21.55,22.41-3.14.18-.14.46.06.28.21Z"></path><path class="b" d="M72.25,22.08a2.8,2.8,0,0,0-1.16-1,5.73,5.73,0,0,0-2.83.08,10.92,10.92,0,0,0-1.37.14l-.1,0c-1.32.3-5.48,2.25-7,1.85-1.21-.31-7.48-1.11-8.39-2.94a3,3,0,0,1,3.08-3.66l.4,0c1.08.19,1.27-.35,1.24-1.11L56,15.15c0-.08.1-.36.11-.49a.37.37,0,0,1,0-.41c.15-.31.61-.33,1-.65s-.91-1.29-1-1.82c-.11-.78.29-.82.27-1.42a5.32,5.32,0,0,0-8.4-4,6.79,6.79,0,0,0-2-.55,2.34,2.34,0,0,0-2.38,2.05A2.67,2.67,0,0,0,45,10.59a6,6,0,0,1,2.47,7.34c-.23.54-.89,1.76-.89,1.76-1.51,2-4.46,1.54-4.46,1.54-9.53-.9-18.63-3.26-27.76-5.39,0,.06-1.91-.5-1.93-.38s-.18.24-.2.32,1.94.81,1.93.87C17.51,17.89,20.87,19,24.33,20c5.94,1.59,12,2.86,18,4.19,2.11.46,3.19,1.47,2.54,3.56-1.25,4-2.25,6.32-5.3,8.25-.65.41-1.29.85-1.94,1.28-2.32,1.52-3.67,3.5-3.27,6.44.33,2.39-1.29,4.11-2.37,6-.14.26-.8.3-1.23.3s-5.19-.17-7.94-.21l-6.24-.57c-.51,0-.94-.1-1.1-.75a.7.7,0,0,0-1.19-.27,1.83,1.83,0,0,1-1.85.49,6,6,0,0,0-2.38.18V49a1.47,1.47,0,0,0,.28.14A60.21,60.21,0,0,0,17,50.45c2,.38,3.32.82,5.81,1.32,3.28.66,6.45,1.08,7.46,1.34,0,0-2.23,6-4.25,8.56s-6.63,5.47-9,8.77c-.36.37-.71.63-1.29.31a.7.7,0,0,0-1,.7,1.87,1.87,0,0,1-.9,1.7A6,6,0,0,0,12.34,75l.12.12a2.49,2.49,0,0,0,.29-.11,38.8,38.8,0,0,0,6-4.42c1.63-1.45,5.93-4.15,9.06-6.92a78.63,78.63,0,0,0,7.51-8.5,1.73,1.73,0,0,1,1.9-.55c4.57.88,9.14,1.76,13.72,2.57a26.29,26.29,0,0,0,3.56.18,1.36,1.36,0,0,0,1.4-1.63,9.54,9.54,0,0,0-1.31-2.51,33.12,33.12,0,0,0-3.8-4.57S46,43.58,46,39.92a7.16,7.16,0,0,1,2.66-5.54,17.07,17.07,0,0,1,1.94-1.65q1.77-1.29,3.62-2.48c1.17-.75,1.3-1.68.52-2.86-.53-.83-.92-1.05-1.4-1.9-.59-1-1.66-2.22-1-1.81,2.72,1.66,6.75,1.72,7.83,1.85,1.44.17,5.53-2.37,5.53-2.37l1.07-.56a2.33,2.33,0,0,1,.71-.28c.31,0,.49.12.86.16a12.75,12.75,0,0,0,1.78.06,4,4,0,0,0,.49,0s.36,0,.45-.11-.1-.2-.47-.22-1.09-.23-1.12-.37,1-.17,1.26,0l.74.1a5.62,5.62,0,0,1-.34-.55A3,3,0,0,1,72,22ZM47.66,51.75a.39.39,0,0,1-.36.66l-8.36-2.06a.39.39,0,0,1-.23-.59l1.92-3a1,1,0,0,1,1.45-.18Z"></path><path class="a" d="M74.26,33.77c-5.76.78-13.32,4-13.32,10.44,0,3.78,1.5,4.62,1.5,5.28,0,.36-.3.6-1,.6-2.88,0-8.82-2.82-8.82-8.34,0-8,10-12.18,24.48-12.18,10.14,0,19.8,3.24,19.8,12.84C96.94,49.07,91.18,55,83.56,55c-4,0-7-2.4-7-4a.66.66,0,0,1,.6-.66,10.76,10.76,0,0,0,2.64.6c4.14,0,8.52-4.32,8.52-10.74,0-4.5-3.12-6.36-5.76-6.36-.84,0-1.44.9-2.28,2.88-4.14,9.42-9,20.34-11.34,31.8-.24,1.08-.48,1.74-1.44,1.74-2.82,0-7.5-.72-7.5-2.88,0-2.76,7.5-23.52,11.1-30.06A8.5,8.5,0,0,1,74.26,33.77Z"></path><path class="a" d="M99.52,68.27c0,.9-.18,1.44-1.14,1.44-2.82,0-6.72-.72-6.72-2.88,0-4.32,11.64-27.24,11.64-32,0-.6.54-1,1.68-1,2.52,0,5.88,2.7,5.88,4.38C110.86,41.69,99.52,63.71,99.52,68.27Z"></path><path class="a" d="M120.88,47.93c6,0,9.3,2.82,9.3,7,0,7.26-7.2,14.7-16.74,14.7-4.86,0-8.4-2.28-8.4-6.6,0-5.16,4.26-8.34,5.64-9.24a3.69,3.69,0,0,1-.06-.78C110.62,50.39,115.54,47.93,120.88,47.93Zm-5.94,17.4c3.24,0,7-7.86,7-11.52,0-1.5-.54-2-1.68-2a4,4,0,0,0-3.54,4c0,1.26.54,1.86.54,2.46a.85.85,0,0,1-.84.78A4.39,4.39,0,0,1,113.92,58a11.75,11.75,0,0,0-.9,4.32C113,64.43,113.74,65.33,114.94,65.33Z"></path><path class="a" d="M133.54,53.09a8.4,8.4,0,0,1,1.8-3.78,3,3,0,0,1,2.16-.6c1.56-3.84,2.94-7.2,2.94-8.7,0-.54.54-1,1.68-1,2.52,0,5.82,2.64,5.82,4.38,0,.84-.9,2.7-1.92,5.28a29.88,29.88,0,0,0,3.6-.24c.42,0,.6.24.6.66,0,2.22-1.44,4.8-6.3,4.8-1.56,3.24-5.28,12.06-5.28,14.34,0,.9-.24,1.44-1.2,1.44-2.76,0-6.66-.72-6.66-2.88,0-2.64,4.56-11.1,4.56-13C134.74,53.87,133.54,53.87,133.54,53.09Z"></path><path class="b" d="M178.08,38.15c0,2.1-2.88,5.46-4.38,5.46-1,0-.72-4.2-2.34-4.2s-4.68,8.34-5,9.18c0,0,2.64-.12,3.42-.12.42,0,.54.24.54.72a5.53,5.53,0,0,1-5.82,4.8c-.48,0-.54.24-.78.66-2.22,4.86-4.68,11.88-4.68,13.62,0,.9-.18,1.44-1.14,1.44-2.82,0-6.72-.72-6.72-2.88,0-1.56,2.76-8.88,4.32-13-1.32,0-1.8-.3-1.8-.78,0-1,1.14-4.44,4-4.44,3.24-8.16,6.6-14.88,14-14.88C174.84,33.77,178.08,36,178.08,38.15Z"></path><path class="b" d="M187.14,61.49a1,1,0,0,1,1,1c0,1.08-3.42,7.32-12.84,7.32-4.08,0-7.5-2.46-7.5-6.84,0-7.44,8.1-14.94,16.32-14.94,4.62,0,6.42,2.4,6.42,4.74,0,4.62-7.56,8.46-13,9.48.36,1.26,1.32,2,3.06,2C184.68,64.25,186.24,61.49,187.14,61.49Zm-9.54-2.64c3.9-1.08,7.14-3.9,7.14-5.76a.92.92,0,0,0-1-1C181.8,52.07,178.56,55.19,177.6,58.85Z"></path><path class="b" d="M209.94,61.49a1,1,0,0,1,1,1c0,1.08-3.42,7.32-12.84,7.32-4.08,0-7.5-2.46-7.5-6.84,0-7.44,8.1-14.94,16.32-14.94,4.62,0,6.42,2.4,6.42,4.74,0,4.62-7.56,8.46-13,9.48.36,1.26,1.32,2,3.06,2C207.48,64.25,209,61.49,209.94,61.49Zm-9.54-2.64c3.9-1.08,7.14-3.9,7.14-5.76a.92.92,0,0,0-1-1C204.6,52.07,201.36,55.19,200.4,58.85Z"></path><path class="a" d="M106.5,11.22a1.15,1.15,0,0,1,.73-.77l9.38-4.18a1.19,1.19,0,0,1,1,0l9.43,4.21a.94.94,0,0,1,.59,1.28,1.14,1.14,0,0,1-.54.5l-8.41,4.48-1.07.57a1,1,0,0,1-1,0l-9.55-5.09a1.05,1.05,0,0,1-.56-.71Z"></path><path class="b" d="M106.5,15c.14-.39.37-.7.81-.71a1.33,1.33,0,0,1,.65.16q4.46,2.37,8.91,4.76a.44.44,0,0,0,.47,0l8.93-4.77a.94.94,0,0,1,1.12,0,.88.88,0,0,1-.06,1.44c-.2.13-.42.24-.63.35l-9,4.8a1.17,1.17,0,0,1-1.21,0q-4.67-2.5-9.34-5a1.18,1.18,0,0,1-.67-.76Z"></path><path class="b" d="M106.5,18.61A.93.93,0,0,1,108,18l6.1,3.25,2.88,1.55a.33.33,0,0,0,.36,0l9-4.78a1,1,0,0,1,.77-.15.87.87,0,0,1,.68.73.85.85,0,0,1-.36.88,2,2,0,0,1-.23.14l-9.43,5a1.08,1.08,0,0,1-1.15,0l-9.36-5a1.26,1.26,0,0,1-.68-.75Z"></path></svg>